<svg xmlns="http://www.w3.org/2000/svg" viewBox="0 0 1600 1000" role="img" aria-label="Outdoor visual">
<defs><filter id="grain"><feTurbulence type="fractalNoise" baseFrequency="0.8" numOctaves="3" stitchTiles="stitch"/><feColorMatrix type="saturate" values="0"/><feComponentTransfer><feFuncA type="table" tableValues="0 0.12"/></feComponentTransfer></filter><linearGradient id="sky" x1="0" y1="0" x2="0" y2="1"><stop offset="0" stop-color="#D0A768"/><stop offset="0.55" stop-color="#75846D"/><stop offset="1" stop-color="#171B16"/></linearGradient><linearGradient id="earthg" x1="0" y1="0" x2="1" y2="1"><stop stop-color="#8A6A43"/><stop offset="1" stop-color="#10130F"/></linearGradient><radialGradient id="sun"><stop stop-color="#FFF4D6"/><stop offset="1" stop-color="#D0A768" stop-opacity="0"/></radialGradient></defs>
<rect width="1600" height="1000" fill="url(#sky)"/>
<circle cx="1180" cy="160" r="240" fill="url(#sun)"/>
<polygon points="-100,1000 -100,510 69,208 247,510 390,241 514,510 658,348 775,510 982,219 1026,510 1242,210 1285,510 1441,210 1617,510 1738,194 1700,1000" fill="#435044" opacity="0.82"/>
<polygon points="-100,1000 -100,620 112,416 221,620 344,506 527,620 709,492 861,620 1068,422 1139,620 1269,408 1466,620 1618,341 1700,1000" fill="#2D382F" opacity="0.86"/>
<polygon points="-100,1000 -100,730 40,524 227,730 386,597 476,730 679,542 762,730 886,511 1120,730 1280,626 1403,730 1531,490 1682,730 1833,656 1700,1000" fill="#1A211B" opacity="0.8999999999999999"/>
<polygon points="-100,1000 -100,840 39,673 244,840 400,700 518,840 733,682 793,840 924,775 1106,840 1326,699 1365,840 1503,658 1646,840 1791,703 1700,1000" fill="#10130F" opacity="0.94"/>
<path d="M0 760 C340 700 520 800 830 745 C1120 695 1360 720 1600 660 L1600 1000 L0 1000Z" fill="#6F8D8C" opacity=".62"/>
<path d="M0 805 C390 755 630 835 970 780 C1250 735 1430 770 1600 720" fill="none" stroke="#F3EFE6" stroke-opacity=".25" stroke-width="3"/>
<path d="M930 770 L1080 930 H790Z" fill="#D0A768"/>
<path d="M930 770 L930 930" stroke="#10130F" stroke-width="8"/>
<circle cx="1060" cy="785" r="18" fill="#F3EFE6" opacity=".8"/>
<circle cx="490" cy="626.0" r="21.599999999999998" fill="#111510"/>
<path d="M490 650.0 L472.0 752.0 L498.4 825.2 M484.0 746.0 L439.6 810.8 M494.8 746.0 L544.0 801.2" fill="none" stroke="#111510" stroke-width="19.2" stroke-linecap="round"/>
<rect x="439.6" y="656.0" width="42.0" height="74.39999999999999" rx="16.8" fill="#8A6A43"/>
<circle cx="620" cy="681.5" r="17.099999999999998" fill="#111510"/>
<path d="M620 700.5 L605.75 781.25 L626.65 839.2 M615.25 776.5 L580.1 827.8 M623.8 776.5 L662.75 820.2" fill="none" stroke="#111510" stroke-width="15.2" stroke-linecap="round"/>
<rect x="580.1" y="705.25" width="33.25" height="58.9" rx="13.299999999999999" fill="#8A6A43"/>
<circle cx="745" cy="719.0" r="14.4" fill="#111510"/>
<path d="M745 735.0 L733.0 803.0 L750.6 851.8 M741.0 799.0 L711.4 842.2 M748.2 799.0 L781.0 835.8" fill="none" stroke="#111510" stroke-width="12.8" stroke-linecap="round"/>
<rect x="711.4" y="739.0" width="28.0" height="49.6" rx="11.200000000000001" fill="#8A6A43"/>
<rect width="100%" height="100%" filter="url(#grain)" opacity=".34"/>
</svg>