<svg xmlns="http://www.w3.org/2000/svg" viewBox="0 0 1600 1000" role="img" aria-label="Outdoor visual">
<defs><filter id="grain"><feTurbulence type="fractalNoise" baseFrequency="0.8" numOctaves="3" stitchTiles="stitch"/><feColorMatrix type="saturate" values="0"/><feComponentTransfer><feFuncA type="table" tableValues="0 0.12"/></feComponentTransfer></filter><linearGradient id="sky" x1="0" y1="0" x2="0" y2="1"><stop offset="0" stop-color="#D0A768"/><stop offset="0.55" stop-color="#75846D"/><stop offset="1" stop-color="#171B16"/></linearGradient><linearGradient id="earthg" x1="0" y1="0" x2="1" y2="1"><stop stop-color="#8A6A43"/><stop offset="1" stop-color="#10130F"/></linearGradient><radialGradient id="sun"><stop stop-color="#FFF4D6"/><stop offset="1" stop-color="#D0A768" stop-opacity="0"/></radialGradient></defs>
<rect width="1600" height="1000" fill="#D8C79E"/>
<circle cx="1230" cy="170" r="160" fill="#F3EFE6" opacity=".55"/>
<rect x="-96" y="284" width="34" height="546" fill="#253128" opacity=".86"/>
<polygon points="-144,404 -78,224 -14,404" fill="#253128" opacity=".92"/>
<rect x="-21" y="349" width="34" height="481" fill="#465645" opacity=".86"/>
<polygon points="-69,469 -3,289 61,469" fill="#465645" opacity=".92"/>
<rect x="50" y="251" width="37" height="579" fill="#334337" opacity=".86"/>
<polygon points="2,371 68,191 132,371" fill="#334337" opacity=".92"/>
<rect x="113" y="495" width="31" height="335" fill="#465645" opacity=".86"/>
<polygon points="65,615 131,435 195,615" fill="#465645" opacity=".92"/>
<rect x="182" y="413" width="28" height="417" fill="#253128" opacity=".86"/>
<polygon points="134,533 200,353 264,533" fill="#253128" opacity=".92"/>
<rect x="246" y="539" width="20" height="291" fill="#334337" opacity=".86"/>
<polygon points="198,659 264,479 328,659" fill="#334337" opacity=".92"/>
<rect x="304" y="492" width="30" height="338" fill="#75846D" opacity=".86"/>
<polygon points="256,612 322,432 386,612" fill="#75846D" opacity=".92"/>
<rect x="361" y="500" width="18" height="330" fill="#75846D" opacity=".86"/>
<polygon points="313,620 379,440 443,620" fill="#75846D" opacity=".92"/>
<rect x="428" y="254" width="30" height="576" fill="#75846D" opacity=".86"/>
<polygon points="380,374 446,194 510,374" fill="#75846D" opacity=".92"/>
<rect x="515" y="213" width="36" height="617" fill="#465645" opacity=".86"/>
<polygon points="467,333 533,153 597,333" fill="#465645" opacity=".92"/>
<rect x="584" y="469" width="25" height="361" fill="#75846D" opacity=".86"/>
<polygon points="536,589 602,409 666,589" fill="#75846D" opacity=".92"/>
<rect x="651" y="255" width="24" height="575" fill="#253128" opacity=".86"/>
<polygon points="603,375 669,195 733,375" fill="#253128" opacity=".92"/>
<rect x="706" y="452" width="22" height="378" fill="#334337" opacity=".86"/>
<polygon points="658,572 724,392 788,572" fill="#334337" opacity=".92"/>
<rect x="778" y="497" width="18" height="333" fill="#75846D" opacity=".86"/>
<polygon points="730,617 796,437 860,617" fill="#75846D" opacity=".92"/>
<rect x="841" y="305" width="34" height="525" fill="#253128" opacity=".86"/>
<polygon points="793,425 859,245 923,425" fill="#253128" opacity=".92"/>
<rect x="907" y="294" width="29" height="536" fill="#75846D" opacity=".86"/>
<polygon points="859,414 925,234 989,414" fill="#75846D" opacity=".92"/>
<rect x="969" y="273" width="18" height="557" fill="#334337" opacity=".86"/>
<polygon points="921,393 987,213 1051,393" fill="#334337" opacity=".92"/>
<rect x="1022" y="504" width="32" height="326" fill="#253128" opacity=".86"/>
<polygon points="974,624 1040,444 1104,624" fill="#253128" opacity=".92"/>
<rect x="1096" y="319" width="39" height="511" fill="#253128" opacity=".86"/>
<polygon points="1048,439 1114,259 1178,439" fill="#253128" opacity=".92"/>
<rect x="1153" y="485" width="27" height="345" fill="#75846D" opacity=".86"/>
<polygon points="1105,605 1171,425 1235,605" fill="#75846D" opacity=".92"/>
<rect x="1230" y="344" width="23" height="486" fill="#465645" opacity=".86"/>
<polygon points="1182,464 1248,284 1312,464" fill="#465645" opacity=".92"/>
<rect x="1296" y="326" width="27" height="504" fill="#465645" opacity=".86"/>
<polygon points="1248,446 1314,266 1378,446" fill="#465645" opacity=".92"/>
<rect x="1334" y="511" width="27" height="319" fill="#334337" opacity=".86"/>
<polygon points="1286,631 1352,451 1416,631" fill="#334337" opacity=".92"/>
<rect x="1423" y="499" width="20" height="331" fill="#75846D" opacity=".86"/>
<polygon points="1375,619 1441,439 1505,619" fill="#75846D" opacity=".92"/>
<rect x="1491" y="292" width="39" height="538" fill="#75846D" opacity=".86"/>
<polygon points="1443,412 1509,232 1573,412" fill="#75846D" opacity=".92"/>
<rect x="1528" y="461" width="38" height="369" fill="#75846D" opacity=".86"/>
<polygon points="1480,581 1546,401 1610,581" fill="#75846D" opacity=".92"/>
<rect x="1609" y="512" width="22" height="318" fill="#253128" opacity=".86"/>
<polygon points="1561,632 1627,452 1691,632" fill="#253128" opacity=".92"/>
<rect x="1667" y="330" width="32" height="500" fill="#465645" opacity=".86"/>
<polygon points="1619,450 1685,270 1749,450" fill="#465645" opacity=".92"/>
<rect x="1729" y="447" width="39" height="383" fill="#75846D" opacity=".86"/>
<polygon points="1681,567 1747,387 1811,567" fill="#75846D" opacity=".92"/>
<rect x="1791" y="331" width="18" height="499" fill="#334337" opacity=".86"/>
<polygon points="1743,451 1809,271 1873,451" fill="#334337" opacity=".92"/>
<path d="M0 775 C430 680 820 870 1600 700 L1600 1000 L0 1000Z" fill="#171B16"/>
<circle cx="520" cy="440" r="100" fill="#D7B08A"/>
<path d="M390 500 Q520 420 660 505 L760 950 L280 950Z" fill="#10130F"/>
<rect x="570" y="420" width="200" height="135" rx="20" fill="#171B16"/>
<circle cx="690" cy="488" r="65" fill="#2D382F" stroke="#D0A768" stroke-width="14"/>
<path d="M580 485 L470 545" stroke="#10130F" stroke-width="30" stroke-linecap="round"/>
<rect width="100%" height="100%" filter="url(#grain)" opacity=".34"/>
</svg>