<svg xmlns="http://www.w3.org/2000/svg" viewBox="0 0 1600 1000" role="img" aria-label="Outdoor visual">
<defs><filter id="grain"><feTurbulence type="fractalNoise" baseFrequency="0.8" numOctaves="3" stitchTiles="stitch"/><feColorMatrix type="saturate" values="0"/><feComponentTransfer><feFuncA type="table" tableValues="0 0.12"/></feComponentTransfer></filter><linearGradient id="sky" x1="0" y1="0" x2="0" y2="1"><stop offset="0" stop-color="#D0A768"/><stop offset="0.55" stop-color="#75846D"/><stop offset="1" stop-color="#171B16"/></linearGradient><linearGradient id="earthg" x1="0" y1="0" x2="1" y2="1"><stop stop-color="#8A6A43"/><stop offset="1" stop-color="#10130F"/></linearGradient><radialGradient id="sun"><stop stop-color="#FFF4D6"/><stop offset="1" stop-color="#D0A768" stop-opacity="0"/></radialGradient></defs>
<rect width="1600" height="1000" fill="url(#sky)"/>
<circle cx="1320" cy="110" r="240" fill="url(#sun)"/>
<polygon points="-100,1000 -100,510 35,344 224,510 386,276 494,510 676,340 814,510 957,264 1115,510 1293,315 1468,510 1613,323 1700,1000" fill="#435044" opacity="0.82"/>
<polygon points="-100,1000 -100,620 35,358 181,620 387,402 518,620 668,491 779,620 924,475 1113,620 1306,442 1417,620 1623,484 1700,1000" fill="#2D382F" opacity="0.86"/>
<polygon points="-100,1000 -100,730 83,487 167,730 325,497 440,730 603,679 731,730 949,624 1064,730 1252,577 1348,730 1541,529 1655,730 1809,611 1700,1000" fill="#1A211B" opacity="0.8999999999999999"/>
<polygon points="-100,1000 -100,840 58,644 210,840 366,796 511,840 695,680 769,840 976,699 1110,840 1250,664 1374,840 1576,773 1700,1000" fill="#10130F" opacity="0.94"/>
<rect x="1060" y="650" width="270" height="210" rx="28" fill="#D0A768"/>
<path d="M1095 675 L1290 675 L1310 835 L1075 835Z" fill="#10130F" opacity=".85"/>
<circle cx="1200" cy="755" r="46" fill="#75846D"/>
<path d="M1140 650 Q1200 555 1260 650" fill="none" stroke="#D0A768" stroke-width="20"/>
<rect width="100%" height="100%" filter="url(#grain)" opacity=".34"/>
</svg>