<svg xmlns="http://www.w3.org/2000/svg" viewBox="0 0 1600 1000" role="img" aria-label="Outdoor visual">
<defs><filter id="grain"><feTurbulence type="fractalNoise" baseFrequency="0.8" numOctaves="3" stitchTiles="stitch"/><feColorMatrix type="saturate" values="0"/><feComponentTransfer><feFuncA type="table" tableValues="0 0.12"/></feComponentTransfer></filter><linearGradient id="sky" x1="0" y1="0" x2="0" y2="1"><stop offset="0" stop-color="#D0A768"/><stop offset="0.55" stop-color="#75846D"/><stop offset="1" stop-color="#171B16"/></linearGradient><linearGradient id="earthg" x1="0" y1="0" x2="1" y2="1"><stop stop-color="#8A6A43"/><stop offset="1" stop-color="#10130F"/></linearGradient><radialGradient id="sun"><stop stop-color="#FFF4D6"/><stop offset="1" stop-color="#D0A768" stop-opacity="0"/></radialGradient></defs>
<rect width="1600" height="1000" fill="url(#sky)"/>
<circle cx="1050" cy="135" r="240" fill="url(#sun)"/>
<polygon points="-100,1000 -100,510 73,257 243,510 409,313 520,510 738,346 850,510 1039,210 1174,510 1308,319 1531,510 1682,384 1700,1000" fill="#435044" opacity="0.82"/>
<polygon points="-100,1000 -100,620 73,344 172,620 332,407 493,620 705,360 784,620 974,500 1031,620 1176,500 1290,620 1478,355 1601,620 1747,360 1700,1000" fill="#2D382F" opacity="0.86"/>
<polygon points="-100,1000 -100,730 35,542 252,730 453,497 500,730 672,601 750,730 930,551 1071,730 1209,527 1398,730 1582,576 1700,1000" fill="#1A211B" opacity="0.8999999999999999"/>
<polygon points="-100,1000 -100,840 22,739 195,840 388,730 441,840 655,633 726,840 907,813 1013,840 1232,677 1253,840 1403,722 1507,840 1654,683 1700,1000" fill="#10130F" opacity="0.94"/>
<path d="M930 770 L1080 930 H790Z" fill="#D0A768"/>
<path d="M930 770 L930 930" stroke="#10130F" stroke-width="8"/>
<circle cx="1060" cy="785" r="18" fill="#F3EFE6" opacity=".8"/>
<rect width="100%" height="100%" filter="url(#grain)" opacity=".34"/>
</svg>