<svg xmlns="http://www.w3.org/2000/svg" viewBox="0 0 1600 1000" role="img" aria-label="Outdoor visual">
<defs><filter id="grain"><feTurbulence type="fractalNoise" baseFrequency="0.8" numOctaves="3" stitchTiles="stitch"/><feColorMatrix type="saturate" values="0"/><feComponentTransfer><feFuncA type="table" tableValues="0 0.12"/></feComponentTransfer></filter><linearGradient id="sky" x1="0" y1="0" x2="0" y2="1"><stop offset="0" stop-color="#D0A768"/><stop offset="0.55" stop-color="#75846D"/><stop offset="1" stop-color="#171B16"/></linearGradient><linearGradient id="earthg" x1="0" y1="0" x2="1" y2="1"><stop stop-color="#8A6A43"/><stop offset="1" stop-color="#10130F"/></linearGradient><radialGradient id="sun"><stop stop-color="#FFF4D6"/><stop offset="1" stop-color="#D0A768" stop-opacity="0"/></radialGradient></defs>
<rect width="1600" height="1000" fill="url(#sky)"/>
<circle cx="1280" cy="165" r="240" fill="url(#sun)"/>
<polygon points="-100,1000 -100,510 51,355 143,510 320,234 406,510 541,211 740,510 904,224 1081,510 1230,370 1355,510 1515,378 1671,510 1861,345 1700,1000" fill="#435044" opacity="0.82"/>
<polygon points="-100,1000 -100,620 75,348 230,620 423,523 582,620 777,530 855,620 1028,456 1119,620 1253,489 1433,620 1646,400 1700,1000" fill="#2D382F" opacity="0.86"/>
<polygon points="-100,1000 -100,730 27,536 229,730 427,597 511,730 654,614 801,730 1020,601 1152,730 1337,514 1410,730 1564,609 1700,1000" fill="#1A211B" opacity="0.8999999999999999"/>
<polygon points="-100,1000 -100,840 43,648 195,840 358,813 503,840 676,817 861,840 1045,761 1137,840 1309,693 1427,840 1570,656 1700,1000" fill="#10130F" opacity="0.94"/>
<path d="M0 760 C340 700 520 800 830 745 C1120 695 1360 720 1600 660 L1600 1000 L0 1000Z" fill="#6F8D8C" opacity=".62"/>
<path d="M0 805 C390 755 630 835 970 780 C1250 735 1430 770 1600 720" fill="none" stroke="#F3EFE6" stroke-opacity=".25" stroke-width="3"/>
<path d="M930 770 L1080 930 H790Z" fill="#D0A768"/>
<path d="M930 770 L930 930" stroke="#10130F" stroke-width="8"/>
<circle cx="1060" cy="785" r="18" fill="#F3EFE6" opacity=".8"/>
<rect width="100%" height="100%" filter="url(#grain)" opacity=".34"/>
</svg>