<svg xmlns="http://www.w3.org/2000/svg" viewBox="0 0 1600 1000" role="img" aria-label="Outdoor visual">
<defs><filter id="grain"><feTurbulence type="fractalNoise" baseFrequency="0.8" numOctaves="3" stitchTiles="stitch"/><feColorMatrix type="saturate" values="0"/><feComponentTransfer><feFuncA type="table" tableValues="0 0.12"/></feComponentTransfer></filter><linearGradient id="sky" x1="0" y1="0" x2="0" y2="1"><stop offset="0" stop-color="#D0A768"/><stop offset="0.55" stop-color="#75846D"/><stop offset="1" stop-color="#171B16"/></linearGradient><linearGradient id="earthg" x1="0" y1="0" x2="1" y2="1"><stop stop-color="#8A6A43"/><stop offset="1" stop-color="#10130F"/></linearGradient><radialGradient id="sun"><stop stop-color="#FFF4D6"/><stop offset="1" stop-color="#D0A768" stop-opacity="0"/></radialGradient></defs>
<rect width="1600" height="1000" fill="url(#sky)"/>
<circle cx="850" cy="130" r="240" fill="url(#sun)"/>
<polygon points="-100,1000 -100,510 107,205 240,510 379,194 513,510 714,218 861,510 1022,365 1174,510 1297,347 1466,510 1595,286 1700,1000" fill="#435044" opacity="0.82"/>
<polygon points="-100,1000 -100,620 60,503 200,620 377,387 492,620 637,482 772,620 979,375 1054,620 1228,451 1305,620 1491,375 1648,620 1819,410 1700,1000" fill="#2D382F" opacity="0.86"/>
<polygon points="-100,1000 -100,730 93,628 171,730 316,672 423,730 567,659 695,730 912,503 971,730 1179,602 1243,730 1442,639 1498,730 1652,675 1700,1000" fill="#1A211B" opacity="0.8999999999999999"/>
<polygon points="-100,1000 -100,840 48,766 213,840 340,765 454,840 653,660 732,840 869,754 1060,840 1222,660 1376,840 1553,641 1700,1000" fill="#10130F" opacity="0.94"/>
<circle cx="490" cy="626.0" r="21.599999999999998" fill="#111510"/>
<path d="M490 650.0 L472.0 752.0 L498.4 825.2 M484.0 746.0 L439.6 810.8 M494.8 746.0 L544.0 801.2" fill="none" stroke="#111510" stroke-width="19.2" stroke-linecap="round"/>
<rect x="439.6" y="656.0" width="42.0" height="74.39999999999999" rx="16.8" fill="#8A6A43"/>
<circle cx="620" cy="681.5" r="17.099999999999998" fill="#111510"/>
<path d="M620 700.5 L605.75 781.25 L626.65 839.2 M615.25 776.5 L580.1 827.8 M623.8 776.5 L662.75 820.2" fill="none" stroke="#111510" stroke-width="15.2" stroke-linecap="round"/>
<rect x="580.1" y="705.25" width="33.25" height="58.9" rx="13.299999999999999" fill="#8A6A43"/>
<circle cx="745" cy="719.0" r="14.4" fill="#111510"/>
<path d="M745 735.0 L733.0 803.0 L750.6 851.8 M741.0 799.0 L711.4 842.2 M748.2 799.0 L781.0 835.8" fill="none" stroke="#111510" stroke-width="12.8" stroke-linecap="round"/>
<rect x="711.4" y="739.0" width="28.0" height="49.6" rx="11.200000000000001" fill="#8A6A43"/>
<rect width="100%" height="100%" filter="url(#grain)" opacity=".34"/>
</svg>