<svg xmlns="http://www.w3.org/2000/svg" viewBox="0 0 1600 1000" role="img" aria-label="Outdoor visual">
<defs><filter id="grain"><feTurbulence type="fractalNoise" baseFrequency="0.8" numOctaves="3" stitchTiles="stitch"/><feColorMatrix type="saturate" values="0"/><feComponentTransfer><feFuncA type="table" tableValues="0 0.12"/></feComponentTransfer></filter><linearGradient id="sky" x1="0" y1="0" x2="0" y2="1"><stop offset="0" stop-color="#D0A768"/><stop offset="0.55" stop-color="#75846D"/><stop offset="1" stop-color="#171B16"/></linearGradient><linearGradient id="earthg" x1="0" y1="0" x2="1" y2="1"><stop stop-color="#8A6A43"/><stop offset="1" stop-color="#10130F"/></linearGradient><radialGradient id="sun"><stop stop-color="#FFF4D6"/><stop offset="1" stop-color="#D0A768" stop-opacity="0"/></radialGradient></defs>
<rect width="1600" height="1000" fill="#D8C79E"/>
<circle cx="1230" cy="170" r="160" fill="#F3EFE6" opacity=".55"/>
<rect x="-82" y="402" width="38" height="428" fill="#334337" opacity=".86"/>
<polygon points="-130,522 -64,342 0,522" fill="#334337" opacity=".92"/>
<rect x="-19" y="209" width="25" height="621" fill="#334337" opacity=".86"/>
<polygon points="-67,329 -1,149 63,329" fill="#334337" opacity=".92"/>
<rect x="43" y="484" width="35" height="346" fill="#253128" opacity=".86"/>
<polygon points="-5,604 61,424 125,604" fill="#253128" opacity=".92"/>
<rect x="110" y="400" width="31" height="430" fill="#253128" opacity=".86"/>
<polygon points="62,520 128,340 192,520" fill="#253128" opacity=".92"/>
<rect x="170" y="200" width="26" height="630" fill="#253128" opacity=".86"/>
<polygon points="122,320 188,140 252,320" fill="#253128" opacity=".92"/>
<rect x="236" y="507" width="32" height="323" fill="#465645" opacity=".86"/>
<polygon points="188,627 254,447 318,627" fill="#465645" opacity=".92"/>
<rect x="319" y="479" width="29" height="351" fill="#465645" opacity=".86"/>
<polygon points="271,599 337,419 401,599" fill="#465645" opacity=".92"/>
<rect x="371" y="301" width="39" height="529" fill="#75846D" opacity=".86"/>
<polygon points="323,421 389,241 453,421" fill="#75846D" opacity=".92"/>
<rect x="445" y="330" width="38" height="500" fill="#465645" opacity=".86"/>
<polygon points="397,450 463,270 527,450" fill="#465645" opacity=".92"/>
<rect x="494" y="373" width="40" height="457" fill="#465645" opacity=".86"/>
<polygon points="446,493 512,313 576,493" fill="#465645" opacity=".92"/>
<rect x="580" y="267" width="32" height="563" fill="#334337" opacity=".86"/>
<polygon points="532,387 598,207 662,387" fill="#334337" opacity=".92"/>
<rect x="645" y="276" width="27" height="554" fill="#334337" opacity=".86"/>
<polygon points="597,396 663,216 727,396" fill="#334337" opacity=".92"/>
<rect x="694" y="459" width="26" height="371" fill="#465645" opacity=".86"/>
<polygon points="646,579 712,399 776,579" fill="#465645" opacity=".92"/>
<rect x="770" y="315" width="37" height="515" fill="#465645" opacity=".86"/>
<polygon points="722,435 788,255 852,435" fill="#465645" opacity=".92"/>
<rect x="829" y="348" width="36" height="482" fill="#334337" opacity=".86"/>
<polygon points="781,468 847,288 911,468" fill="#334337" opacity=".92"/>
<rect x="908" y="269" width="36" height="561" fill="#334337" opacity=".86"/>
<polygon points="860,389 926,209 990,389" fill="#334337" opacity=".92"/>
<rect x="957" y="451" width="22" height="379" fill="#465645" opacity=".86"/>
<polygon points="909,571 975,391 1039,571" fill="#465645" opacity=".92"/>
<rect x="1011" y="330" width="30" height="500" fill="#75846D" opacity=".86"/>
<polygon points="963,450 1029,270 1093,450" fill="#75846D" opacity=".92"/>
<rect x="1072" y="182" width="19" height="648" fill="#75846D" opacity=".86"/>
<polygon points="1024,302 1090,122 1154,302" fill="#75846D" opacity=".92"/>
<rect x="1151" y="478" width="40" height="352" fill="#75846D" opacity=".86"/>
<polygon points="1103,598 1169,418 1233,598" fill="#75846D" opacity=".92"/>
<rect x="1230" y="223" width="23" height="607" fill="#465645" opacity=".86"/>
<polygon points="1182,343 1248,163 1312,343" fill="#465645" opacity=".92"/>
<rect x="1293" y="174" width="29" height="656" fill="#465645" opacity=".86"/>
<polygon points="1245,294 1311,114 1375,294" fill="#465645" opacity=".92"/>
<rect x="1344" y="189" width="34" height="641" fill="#465645" opacity=".86"/>
<polygon points="1296,309 1362,129 1426,309" fill="#465645" opacity=".92"/>
<rect x="1405" y="190" width="33" height="640" fill="#334337" opacity=".86"/>
<polygon points="1357,310 1423,130 1487,310" fill="#334337" opacity=".92"/>
<rect x="1475" y="234" width="36" height="596" fill="#253128" opacity=".86"/>
<polygon points="1427,354 1493,174 1557,354" fill="#253128" opacity=".92"/>
<rect x="1529" y="367" width="23" height="463" fill="#465645" opacity=".86"/>
<polygon points="1481,487 1547,307 1611,487" fill="#465645" opacity=".92"/>
<rect x="1610" y="452" width="39" height="378" fill="#334337" opacity=".86"/>
<polygon points="1562,572 1628,392 1692,572" fill="#334337" opacity=".92"/>
<rect x="1692" y="493" width="23" height="337" fill="#334337" opacity=".86"/>
<polygon points="1644,613 1710,433 1774,613" fill="#334337" opacity=".92"/>
<rect x="1726" y="331" width="32" height="499" fill="#253128" opacity=".86"/>
<polygon points="1678,451 1744,271 1808,451" fill="#253128" opacity=".92"/>
<rect x="1808" y="220" width="34" height="610" fill="#253128" opacity=".86"/>
<polygon points="1760,340 1826,160 1890,340" fill="#253128" opacity=".92"/>
<path d="M0 775 C430 680 820 870 1600 700 L1600 1000 L0 1000Z" fill="#171B16"/>
<circle cx="520" cy="690" r="22" fill="#D7B08A"/>
<path d="M520 715 L520 850" stroke="#F3EFE6" stroke-width="34" stroke-linecap="round"/>
<circle cx="650" cy="690" r="22" fill="#D7B08A"/>
<path d="M650 715 L650 850" stroke="#F3EFE6" stroke-width="34" stroke-linecap="round"/>
<circle cx="790" cy="690" r="22" fill="#D7B08A"/>
<path d="M790 715 L790 850" stroke="#F3EFE6" stroke-width="34" stroke-linecap="round"/>
<circle cx="920" cy="690" r="22" fill="#D7B08A"/>
<path d="M920 715 L920 850" stroke="#F3EFE6" stroke-width="34" stroke-linecap="round"/>
<rect width="100%" height="100%" filter="url(#grain)" opacity=".34"/>
</svg>