<svg xmlns="http://www.w3.org/2000/svg" viewBox="0 0 1600 1000" role="img" aria-label="Outdoor visual">
<defs><filter id="grain"><feTurbulence type="fractalNoise" baseFrequency="0.8" numOctaves="3" stitchTiles="stitch"/><feColorMatrix type="saturate" values="0"/><feComponentTransfer><feFuncA type="table" tableValues="0 0.12"/></feComponentTransfer></filter><linearGradient id="sky" x1="0" y1="0" x2="0" y2="1"><stop offset="0" stop-color="#D0A768"/><stop offset="0.55" stop-color="#75846D"/><stop offset="1" stop-color="#171B16"/></linearGradient><linearGradient id="earthg" x1="0" y1="0" x2="1" y2="1"><stop stop-color="#8A6A43"/><stop offset="1" stop-color="#10130F"/></linearGradient><radialGradient id="sun"><stop stop-color="#FFF4D6"/><stop offset="1" stop-color="#D0A768" stop-opacity="0"/></radialGradient></defs>
<rect width="1600" height="1000" fill="url(#sky)"/>
<circle cx="1120" cy="140" r="240" fill="url(#sun)"/>
<polygon points="-100,1000 -100,510 57,191 254,510 376,369 569,510 743,312 857,510 1022,255 1113,510 1257,205 1387,510 1508,277 1655,510 1833,232 1700,1000" fill="#435044" opacity="0.82"/>
<polygon points="-100,1000 -100,620 33,529 150,620 333,354 443,620 628,530 763,620 938,348 1048,620 1175,338 1314,620 1438,335 1629,620 1833,441 1700,1000" fill="#2D382F" opacity="0.86"/>
<polygon points="-100,1000 -100,730 47,522 234,730 426,588 571,730 764,586 847,730 1007,511 1160,730 1340,659 1422,730 1603,497 1700,1000" fill="#1A211B" opacity="0.8999999999999999"/>
<polygon points="-100,1000 -100,840 106,711 222,840 365,784 564,840 752,780 845,840 1031,653 1110,840 1244,676 1360,840 1534,800 1604,840 1759,680 1700,1000" fill="#10130F" opacity="0.94"/>
<circle cx="490" cy="626.0" r="21.599999999999998" fill="#111510"/>
<path d="M490 650.0 L472.0 752.0 L498.4 825.2 M484.0 746.0 L439.6 810.8 M494.8 746.0 L544.0 801.2" fill="none" stroke="#111510" stroke-width="19.2" stroke-linecap="round"/>
<rect x="439.6" y="656.0" width="42.0" height="74.39999999999999" rx="16.8" fill="#8A6A43"/>
<circle cx="620" cy="681.5" r="17.099999999999998" fill="#111510"/>
<path d="M620 700.5 L605.75 781.25 L626.65 839.2 M615.25 776.5 L580.1 827.8 M623.8 776.5 L662.75 820.2" fill="none" stroke="#111510" stroke-width="15.2" stroke-linecap="round"/>
<rect x="580.1" y="705.25" width="33.25" height="58.9" rx="13.299999999999999" fill="#8A6A43"/>
<circle cx="745" cy="719.0" r="14.4" fill="#111510"/>
<path d="M745 735.0 L733.0 803.0 L750.6 851.8 M741.0 799.0 L711.4 842.2 M748.2 799.0 L781.0 835.8" fill="none" stroke="#111510" stroke-width="12.8" stroke-linecap="round"/>
<rect x="711.4" y="739.0" width="28.0" height="49.6" rx="11.200000000000001" fill="#8A6A43"/>
<circle cx="246" cy="733.438586273405" r="14.550879608104268" fill="#F3EFE6" opacity=".9"/>
<path d="M246 752.4666596070798 L246 856.561413726595" stroke="#F3EFE6" stroke-width="15.670178039496903" stroke-linecap="round" opacity=".86"/>
<circle cx="326" cy="722.6010651828491" r="11.91247550223568" fill="#F3EFE6" opacity=".9"/>
<path d="M326 738.1789177626957 L326 823.3989348171509" stroke="#F3EFE6" stroke-width="12.828819771638425" stroke-linecap="round" opacity=".86"/>
<circle cx="418" cy="735.6101526338967" r="14.983054831988047" fill="#F3EFE6" opacity=".9"/>
<path d="M418 755.2033781834195 L418 862.3898473661033" stroke="#F3EFE6" stroke-width="16.135597511371742" stroke-linecap="round" opacity=".86"/>
<circle cx="524" cy="739.3541415337403" r="11.261748364752304" fill="#F3EFE6" opacity=".9"/>
<path d="M524 754.0810432414933 L524 834.6458584662597" stroke="#F3EFE6" stroke-width="12.128036700502483" stroke-linecap="round" opacity=".86"/>
<circle cx="596" cy="716.2481995081287" r="13.886789207169592" fill="#F3EFE6" opacity=".9"/>
<path d="M596 734.4078469328889 L596 833.7518004918713" stroke="#F3EFE6" stroke-width="14.955003761567252" stroke-linecap="round" opacity=".86"/>
<circle cx="716" cy="740.6255124174013" r="11.67033342861423" fill="#F3EFE6" opacity=".9"/>
<path d="M716 755.8867176702046 L716 839.3744875825987" stroke="#F3EFE6" stroke-width="12.568051384661478" stroke-linecap="round" opacity=".86"/>
<circle cx="789" cy="707.3497054429345" r="15.28097871348823" fill="#F3EFE6" opacity=".9"/>
<path d="M789 727.3325237605728 L789 836.6502945570655" stroke="#F3EFE6" stroke-width="16.456438614525787" stroke-linecap="round" opacity=".86"/>
<circle cx="885" cy="751.6185898960678" r="15.45378784274763" fill="#F3EFE6" opacity=".9"/>
<path d="M885 771.8273893827377 L885 882.3814101039322" stroke="#F3EFE6" stroke-width="16.64254075372822" stroke-linecap="round" opacity=".86"/>
<circle cx="973" cy="762.0137986814362" r="12.051283948024157" fill="#F3EFE6" opacity=".9"/>
<path d="M973 777.7731699980832 L973 863.9862013185638" stroke="#F3EFE6" stroke-width="12.978305790179862" stroke-linecap="round" opacity=".86"/>
<circle cx="1075" cy="729.7416673539935" r="13.770151352692434" fill="#F3EFE6" opacity=".9"/>
<path d="M1075 747.7487883536683 L1075 846.2583326460065" stroke="#F3EFE6" stroke-width="14.829393764438006" stroke-linecap="round" opacity=".86"/>
<circle cx="1174" cy="712.419745954649" r="12.900787319810238" fill="#F3EFE6" opacity=".9"/>
<path d="M1174 729.2900062959393 L1174 821.580254045351" stroke="#F3EFE6" stroke-width="13.893155575180256" stroke-linecap="round" opacity=".86"/>
<circle cx="1283" cy="721.182971815428" r="11.774933934535197" fill="#F3EFE6" opacity=".9"/>
<path d="M1283 736.5809623452049 L1283 820.817028184572" stroke="#F3EFE6" stroke-width="12.680698083345597" stroke-linecap="round" opacity=".86"/>
<rect width="100%" height="100%" filter="url(#grain)" opacity=".34"/>
</svg>