<svg xmlns="http://www.w3.org/2000/svg" viewBox="0 0 1600 1000" role="img" aria-label="Outdoor visual">
<defs><filter id="grain"><feTurbulence type="fractalNoise" baseFrequency="0.8" numOctaves="3" stitchTiles="stitch"/><feColorMatrix type="saturate" values="0"/><feComponentTransfer><feFuncA type="table" tableValues="0 0.12"/></feComponentTransfer></filter><linearGradient id="sky" x1="0" y1="0" x2="0" y2="1"><stop offset="0" stop-color="#D0A768"/><stop offset="0.55" stop-color="#75846D"/><stop offset="1" stop-color="#171B16"/></linearGradient><linearGradient id="earthg" x1="0" y1="0" x2="1" y2="1"><stop stop-color="#8A6A43"/><stop offset="1" stop-color="#10130F"/></linearGradient><radialGradient id="sun"><stop stop-color="#FFF4D6"/><stop offset="1" stop-color="#D0A768" stop-opacity="0"/></radialGradient></defs>
<rect width="1600" height="1000" fill="#D8C79E"/>
<circle cx="1230" cy="170" r="160" fill="#F3EFE6" opacity=".55"/>
<rect x="-85" y="545" width="23" height="285" fill="#253128" opacity=".86"/>
<polygon points="-133,665 -67,485 -3,665" fill="#253128" opacity=".92"/>
<rect x="-18" y="542" width="39" height="288" fill="#253128" opacity=".86"/>
<polygon points="-66,662 0,482 64,662" fill="#253128" opacity=".92"/>
<rect x="41" y="195" width="25" height="635" fill="#465645" opacity=".86"/>
<polygon points="-7,315 59,135 123,315" fill="#465645" opacity=".92"/>
<rect x="104" y="377" width="40" height="453" fill="#75846D" opacity=".86"/>
<polygon points="56,497 122,317 186,497" fill="#75846D" opacity=".92"/>
<rect x="184" y="407" width="26" height="423" fill="#75846D" opacity=".86"/>
<polygon points="136,527 202,347 266,527" fill="#75846D" opacity=".92"/>
<rect x="249" y="433" width="29" height="397" fill="#334337" opacity=".86"/>
<polygon points="201,553 267,373 331,553" fill="#334337" opacity=".92"/>
<rect x="312" y="436" width="34" height="394" fill="#465645" opacity=".86"/>
<polygon points="264,556 330,376 394,556" fill="#465645" opacity=".92"/>
<rect x="383" y="432" width="31" height="398" fill="#75846D" opacity=".86"/>
<polygon points="335,552 401,372 465,552" fill="#75846D" opacity=".92"/>
<rect x="453" y="510" width="36" height="320" fill="#75846D" opacity=".86"/>
<polygon points="405,630 471,450 535,630" fill="#75846D" opacity=".92"/>
<rect x="510" y="326" width="40" height="504" fill="#465645" opacity=".86"/>
<polygon points="462,446 528,266 592,446" fill="#465645" opacity=".92"/>
<rect x="580" y="343" width="33" height="487" fill="#253128" opacity=".86"/>
<polygon points="532,463 598,283 662,463" fill="#253128" opacity=".92"/>
<rect x="618" y="450" width="35" height="380" fill="#334337" opacity=".86"/>
<polygon points="570,570 636,390 700,570" fill="#334337" opacity=".92"/>
<rect x="693" y="236" width="27" height="594" fill="#253128" opacity=".86"/>
<polygon points="645,356 711,176 775,356" fill="#253128" opacity=".92"/>
<rect x="780" y="297" width="21" height="533" fill="#334337" opacity=".86"/>
<polygon points="732,417 798,237 862,417" fill="#334337" opacity=".92"/>
<rect x="819" y="348" width="20" height="482" fill="#253128" opacity=".86"/>
<polygon points="771,468 837,288 901,468" fill="#253128" opacity=".92"/>
<rect x="906" y="179" width="30" height="651" fill="#465645" opacity=".86"/>
<polygon points="858,299 924,119 988,299" fill="#465645" opacity=".92"/>
<rect x="974" y="432" width="35" height="398" fill="#334337" opacity=".86"/>
<polygon points="926,552 992,372 1056,552" fill="#334337" opacity=".92"/>
<rect x="1039" y="369" width="25" height="461" fill="#253128" opacity=".86"/>
<polygon points="991,489 1057,309 1121,489" fill="#253128" opacity=".92"/>
<rect x="1091" y="391" width="38" height="439" fill="#334337" opacity=".86"/>
<polygon points="1043,511 1109,331 1173,511" fill="#334337" opacity=".92"/>
<rect x="1157" y="352" width="28" height="478" fill="#75846D" opacity=".86"/>
<polygon points="1109,472 1175,292 1239,472" fill="#75846D" opacity=".92"/>
<rect x="1230" y="513" width="33" height="317" fill="#465645" opacity=".86"/>
<polygon points="1182,633 1248,453 1312,633" fill="#465645" opacity=".92"/>
<rect x="1276" y="491" width="30" height="339" fill="#75846D" opacity=".86"/>
<polygon points="1228,611 1294,431 1358,611" fill="#75846D" opacity=".92"/>
<rect x="1356" y="543" width="20" height="287" fill="#465645" opacity=".86"/>
<polygon points="1308,663 1374,483 1438,663" fill="#465645" opacity=".92"/>
<rect x="1415" y="518" width="32" height="312" fill="#253128" opacity=".86"/>
<polygon points="1367,638 1433,458 1497,638" fill="#253128" opacity=".92"/>
<rect x="1465" y="420" width="33" height="410" fill="#334337" opacity=".86"/>
<polygon points="1417,540 1483,360 1547,540" fill="#334337" opacity=".92"/>
<rect x="1563" y="304" width="19" height="526" fill="#75846D" opacity=".86"/>
<polygon points="1515,424 1581,244 1645,424" fill="#75846D" opacity=".92"/>
<rect x="1624" y="519" width="20" height="311" fill="#75846D" opacity=".86"/>
<polygon points="1576,639 1642,459 1706,639" fill="#75846D" opacity=".92"/>
<rect x="1693" y="314" width="36" height="516" fill="#334337" opacity=".86"/>
<polygon points="1645,434 1711,254 1775,434" fill="#334337" opacity=".92"/>
<rect x="1750" y="196" width="39" height="634" fill="#465645" opacity=".86"/>
<polygon points="1702,316 1768,136 1832,316" fill="#465645" opacity=".92"/>
<rect x="1792" y="238" width="19" height="592" fill="#253128" opacity=".86"/>
<polygon points="1744,358 1810,178 1874,358" fill="#253128" opacity=".92"/>
<path d="M0 775 C430 680 820 870 1600 700 L1600 1000 L0 1000Z" fill="#171B16"/>
<circle cx="520" cy="440" r="100" fill="#D7B08A"/>
<path d="M390 500 Q520 420 660 505 L760 950 L280 950Z" fill="#10130F"/>
<rect x="570" y="420" width="200" height="135" rx="20" fill="#171B16"/>
<circle cx="690" cy="488" r="65" fill="#2D382F" stroke="#D0A768" stroke-width="14"/>
<path d="M580 485 L470 545" stroke="#10130F" stroke-width="30" stroke-linecap="round"/>
<rect width="100%" height="100%" filter="url(#grain)" opacity=".34"/>
</svg>