<svg xmlns="http://www.w3.org/2000/svg" viewBox="0 0 1600 1000" role="img" aria-label="Outdoor visual">
<defs><filter id="grain"><feTurbulence type="fractalNoise" baseFrequency="0.8" numOctaves="3" stitchTiles="stitch"/><feColorMatrix type="saturate" values="0"/><feComponentTransfer><feFuncA type="table" tableValues="0 0.12"/></feComponentTransfer></filter><linearGradient id="sky" x1="0" y1="0" x2="0" y2="1"><stop offset="0" stop-color="#D0A768"/><stop offset="0.55" stop-color="#75846D"/><stop offset="1" stop-color="#171B16"/></linearGradient><linearGradient id="earthg" x1="0" y1="0" x2="1" y2="1"><stop stop-color="#8A6A43"/><stop offset="1" stop-color="#10130F"/></linearGradient><radialGradient id="sun"><stop stop-color="#FFF4D6"/><stop offset="1" stop-color="#D0A768" stop-opacity="0"/></radialGradient></defs>
<rect width="1600" height="1000" fill="url(#sky)"/>
<circle cx="940" cy="185" r="240" fill="url(#sun)"/>
<polygon points="-100,1000 -100,510 98,363 229,510 432,197 536,510 690,327 870,510 1027,325 1203,510 1407,372 1500,510 1679,313 1700,1000" fill="#435044" opacity="0.82"/>
<polygon points="-100,1000 -100,620 70,434 239,620 392,505 507,620 672,455 850,620 1016,469 1192,620 1392,374 1498,620 1638,497 1700,1000" fill="#2D382F" opacity="0.86"/>
<polygon points="-100,1000 -100,730 104,510 175,730 296,638 498,730 633,663 814,730 937,594 1064,730 1210,610 1413,730 1584,583 1700,1000" fill="#1A211B" opacity="0.8999999999999999"/>
<polygon points="-100,1000 -100,840 97,713 152,840 359,661 505,840 699,797 820,840 1021,662 1106,840 1238,779 1441,840 1626,701 1700,1000" fill="#10130F" opacity="0.94"/>
<path d="M0 760 C340 700 520 800 830 745 C1120 695 1360 720 1600 660 L1600 1000 L0 1000Z" fill="#6F8D8C" opacity=".62"/>
<path d="M0 805 C390 755 630 835 970 780 C1250 735 1430 770 1600 720" fill="none" stroke="#F3EFE6" stroke-opacity=".25" stroke-width="3"/>
<rect width="100%" height="100%" filter="url(#grain)" opacity=".34"/>
</svg>