<svg xmlns="http://www.w3.org/2000/svg" viewBox="0 0 1600 1000" role="img" aria-label="Outdoor visual">
<defs><filter id="grain"><feTurbulence type="fractalNoise" baseFrequency="0.8" numOctaves="3" stitchTiles="stitch"/><feColorMatrix type="saturate" values="0"/><feComponentTransfer><feFuncA type="table" tableValues="0 0.12"/></feComponentTransfer></filter><linearGradient id="sky" x1="0" y1="0" x2="0" y2="1"><stop offset="0" stop-color="#D0A768"/><stop offset="0.55" stop-color="#75846D"/><stop offset="1" stop-color="#171B16"/></linearGradient><linearGradient id="earthg" x1="0" y1="0" x2="1" y2="1"><stop stop-color="#8A6A43"/><stop offset="1" stop-color="#10130F"/></linearGradient><radialGradient id="sun"><stop stop-color="#FFF4D6"/><stop offset="1" stop-color="#D0A768" stop-opacity="0"/></radialGradient></defs>
<rect width="1600" height="1000" fill="#D8C79E"/>
<circle cx="1230" cy="170" r="160" fill="#F3EFE6" opacity=".55"/>
<rect x="-88" y="336" width="38" height="494" fill="#75846D" opacity=".86"/>
<polygon points="-136,456 -70,276 -6,456" fill="#75846D" opacity=".92"/>
<rect x="-15" y="305" width="33" height="525" fill="#334337" opacity=".86"/>
<polygon points="-63,425 3,245 67,425" fill="#334337" opacity=".92"/>
<rect x="64" y="457" width="18" height="373" fill="#334337" opacity=".86"/>
<polygon points="16,577 82,397 146,577" fill="#334337" opacity=".92"/>
<rect x="97" y="361" width="20" height="469" fill="#75846D" opacity=".86"/>
<polygon points="49,481 115,301 179,481" fill="#75846D" opacity=".92"/>
<rect x="171" y="432" width="40" height="398" fill="#334337" opacity=".86"/>
<polygon points="123,552 189,372 253,552" fill="#334337" opacity=".92"/>
<rect x="229" y="327" width="37" height="503" fill="#75846D" opacity=".86"/>
<polygon points="181,447 247,267 311,447" fill="#75846D" opacity=".92"/>
<rect x="320" y="533" width="35" height="297" fill="#465645" opacity=".86"/>
<polygon points="272,653 338,473 402,653" fill="#465645" opacity=".92"/>
<rect x="388" y="195" width="38" height="635" fill="#253128" opacity=".86"/>
<polygon points="340,315 406,135 470,315" fill="#253128" opacity=".92"/>
<rect x="445" y="539" width="20" height="291" fill="#334337" opacity=".86"/>
<polygon points="397,659 463,479 527,659" fill="#334337" opacity=".92"/>
<rect x="494" y="540" width="23" height="290" fill="#75846D" opacity=".86"/>
<polygon points="446,660 512,480 576,660" fill="#75846D" opacity=".92"/>
<rect x="587" y="178" width="30" height="652" fill="#465645" opacity=".86"/>
<polygon points="539,298 605,118 669,298" fill="#465645" opacity=".92"/>
<rect x="648" y="473" width="39" height="357" fill="#334337" opacity=".86"/>
<polygon points="600,593 666,413 730,593" fill="#334337" opacity=".92"/>
<rect x="684" y="310" width="20" height="520" fill="#334337" opacity=".86"/>
<polygon points="636,430 702,250 766,430" fill="#334337" opacity=".92"/>
<rect x="759" y="444" width="21" height="386" fill="#253128" opacity=".86"/>
<polygon points="711,564 777,384 841,564" fill="#253128" opacity=".92"/>
<rect x="847" y="307" width="24" height="523" fill="#75846D" opacity=".86"/>
<polygon points="799,427 865,247 929,427" fill="#75846D" opacity=".92"/>
<rect x="898" y="476" width="27" height="354" fill="#75846D" opacity=".86"/>
<polygon points="850,596 916,416 980,596" fill="#75846D" opacity=".92"/>
<rect x="965" y="319" width="28" height="511" fill="#75846D" opacity=".86"/>
<polygon points="917,439 983,259 1047,439" fill="#75846D" opacity=".92"/>
<rect x="1038" y="353" width="18" height="477" fill="#465645" opacity=".86"/>
<polygon points="990,473 1056,293 1120,473" fill="#465645" opacity=".92"/>
<rect x="1077" y="469" width="18" height="361" fill="#75846D" opacity=".86"/>
<polygon points="1029,589 1095,409 1159,589" fill="#75846D" opacity=".92"/>
<rect x="1168" y="515" width="36" height="315" fill="#334337" opacity=".86"/>
<polygon points="1120,635 1186,455 1250,635" fill="#334337" opacity=".92"/>
<rect x="1222" y="266" width="23" height="564" fill="#253128" opacity=".86"/>
<polygon points="1174,386 1240,206 1304,386" fill="#253128" opacity=".92"/>
<rect x="1277" y="230" width="28" height="600" fill="#465645" opacity=".86"/>
<polygon points="1229,350 1295,170 1359,350" fill="#465645" opacity=".92"/>
<rect x="1354" y="245" width="25" height="585" fill="#465645" opacity=".86"/>
<polygon points="1306,365 1372,185 1436,365" fill="#465645" opacity=".92"/>
<rect x="1403" y="464" width="23" height="366" fill="#253128" opacity=".86"/>
<polygon points="1355,584 1421,404 1485,584" fill="#253128" opacity=".92"/>
<rect x="1489" y="359" width="39" height="471" fill="#334337" opacity=".86"/>
<polygon points="1441,479 1507,299 1571,479" fill="#334337" opacity=".92"/>
<rect x="1529" y="204" width="31" height="626" fill="#334337" opacity=".86"/>
<polygon points="1481,324 1547,144 1611,324" fill="#334337" opacity=".92"/>
<rect x="1602" y="171" width="29" height="659" fill="#253128" opacity=".86"/>
<polygon points="1554,291 1620,111 1684,291" fill="#253128" opacity=".92"/>
<rect x="1688" y="291" width="39" height="539" fill="#75846D" opacity=".86"/>
<polygon points="1640,411 1706,231 1770,411" fill="#75846D" opacity=".92"/>
<rect x="1737" y="425" width="35" height="405" fill="#334337" opacity=".86"/>
<polygon points="1689,545 1755,365 1819,545" fill="#334337" opacity=".92"/>
<rect x="1791" y="326" width="33" height="504" fill="#75846D" opacity=".86"/>
<polygon points="1743,446 1809,266 1873,446" fill="#75846D" opacity=".92"/>
<path d="M0 775 C430 680 820 870 1600 700 L1600 1000 L0 1000Z" fill="#171B16"/>
<circle cx="520" cy="690" r="22" fill="#D7B08A"/>
<path d="M520 715 L520 850" stroke="#F3EFE6" stroke-width="34" stroke-linecap="round"/>
<circle cx="650" cy="690" r="22" fill="#D7B08A"/>
<path d="M650 715 L650 850" stroke="#F3EFE6" stroke-width="34" stroke-linecap="round"/>
<circle cx="790" cy="690" r="22" fill="#D7B08A"/>
<path d="M790 715 L790 850" stroke="#F3EFE6" stroke-width="34" stroke-linecap="round"/>
<circle cx="920" cy="690" r="22" fill="#D7B08A"/>
<path d="M920 715 L920 850" stroke="#F3EFE6" stroke-width="34" stroke-linecap="round"/>
<rect width="100%" height="100%" filter="url(#grain)" opacity=".34"/>
</svg>