<svg xmlns="http://www.w3.org/2000/svg" viewBox="0 0 1600 1000" role="img" aria-label="Outdoor visual">
<defs><filter id="grain"><feTurbulence type="fractalNoise" baseFrequency="0.8" numOctaves="3" stitchTiles="stitch"/><feColorMatrix type="saturate" values="0"/><feComponentTransfer><feFuncA type="table" tableValues="0 0.12"/></feComponentTransfer></filter><linearGradient id="sky" x1="0" y1="0" x2="0" y2="1"><stop offset="0" stop-color="#D0A768"/><stop offset="0.55" stop-color="#75846D"/><stop offset="1" stop-color="#171B16"/></linearGradient><linearGradient id="earthg" x1="0" y1="0" x2="1" y2="1"><stop stop-color="#8A6A43"/><stop offset="1" stop-color="#10130F"/></linearGradient><radialGradient id="sun"><stop stop-color="#FFF4D6"/><stop offset="1" stop-color="#D0A768" stop-opacity="0"/></radialGradient></defs>
<rect width="1600" height="1000" fill="url(#sky)"/>
<circle cx="1230" cy="210" r="240" fill="url(#sun)"/>
<polygon points="-100,1000 -100,510 80,298 201,510 374,318 470,510 590,276 762,510 973,222 1035,510 1236,330 1303,510 1460,388 1581,510 1786,305 1700,1000" fill="#435044" opacity="0.82"/>
<polygon points="-100,1000 -100,620 97,345 179,620 327,530 496,620 618,471 850,620 1047,496 1175,620 1298,374 1474,620 1670,419 1700,1000" fill="#2D382F" opacity="0.86"/>
<polygon points="-100,1000 -100,730 57,500 168,730 327,480 454,730 627,614 794,730 958,658 1097,730 1283,572 1419,730 1611,636 1696,730 1821,532 1700,1000" fill="#1A211B" opacity="0.8999999999999999"/>
<polygon points="-100,1000 -100,840 20,804 206,840 356,730 508,840 667,786 786,840 964,744 1084,840 1225,809 1413,840 1626,702 1700,1000" fill="#10130F" opacity="0.94"/>
<circle cx="210" cy="753.8998976506946" r="14.678206009835819" fill="#F3EFE6" opacity=".9"/>
<path d="M210 773.0944747404799 L210 878.1001023493054" stroke="#F3EFE6" stroke-width="15.80729877982319" stroke-linecap="round" opacity=".86"/>
<circle cx="336" cy="697.0105562970998" r="15.124777602503688" fill="#F3EFE6" opacity=".9"/>
<path d="M336 716.7891116234507 L336 824.9894437029002" stroke="#F3EFE6" stroke-width="16.28822203346551" stroke-linecap="round" opacity=".86"/>
<circle cx="430" cy="722.5069062831567" r="12.407458514890227" fill="#F3EFE6" opacity=".9"/>
<path d="M430 738.7320443410902 L430 827.4930937168433" stroke="#F3EFE6" stroke-width="13.361878400651012" stroke-linecap="round" opacity=".86"/>
<circle cx="534" cy="716.3939980663738" r="12.670509547947999" fill="#F3EFE6" opacity=".9"/>
<path d="M534 732.9631259367674 L534 823.6060019336262" stroke="#F3EFE6" stroke-width="13.645164128559383" stroke-linecap="round" opacity=".86"/>
<circle cx="591" cy="719.2497629709655" r="13.886419661408143" fill="#F3EFE6" opacity=".9"/>
<path d="M591 737.4089271435762 L591 836.7502370290345" stroke="#F3EFE6" stroke-width="14.95460578920877" stroke-linecap="round" opacity=".86"/>
<circle cx="710" cy="764.9325890086913" r="9.943206234309333" fill="#F3EFE6" opacity=".9"/>
<path d="M710 777.9352433150958 L710 849.0674109913087" stroke="#F3EFE6" stroke-width="10.708068252333128" stroke-linecap="round" opacity=".86"/>
<circle cx="782" cy="754.8055992394349" r="13.282312907042659" fill="#F3EFE6" opacity=".9"/>
<path d="M782 772.1747776563368 L782 867.1944007605651" stroke="#F3EFE6" stroke-width="14.304029284507479" stroke-linecap="round" opacity=".86"/>
<circle cx="905" cy="767.2044227508384" r="13.660772804347285" fill="#F3EFE6" opacity=".9"/>
<path d="M905 785.0685102642157 L905 882.7955772491616" stroke="#F3EFE6" stroke-width="14.71160148160477" stroke-linecap="round" opacity=".86"/>
<circle cx="974" cy="739.830552257617" r="11.621869466381446" fill="#F3EFE6" opacity=".9"/>
<path d="M974 755.028381559808 L974 838.169447742383" stroke="#F3EFE6" stroke-width="12.515859425333865" stroke-linecap="round" opacity=".86"/>
<circle cx="1070" cy="727.7324561944143" r="11.172328535865715" fill="#F3EFE6" opacity=".9"/>
<path d="M1070 742.3424242797771 L1070 822.2675438055857" stroke="#F3EFE6" stroke-width="12.03173842324" stroke-linecap="round" opacity=".86"/>
<circle cx="1185" cy="701.0108467294309" r="15.124708954861784" fill="#F3EFE6" opacity=".9"/>
<path d="M1185 720.7893122857886 L1185 828.9891532705691" stroke="#F3EFE6" stroke-width="16.288148105235766" stroke-linecap="round" opacity=".86"/>
<circle cx="1262" cy="701.4707183468538" r="15.252375663470922" fill="#F3EFE6" opacity=".9"/>
<path d="M1262 721.416132676008 L1262 830.5292816531462" stroke="#F3EFE6" stroke-width="16.42563532989176" stroke-linecap="round" opacity=".86"/>
<rect width="100%" height="100%" filter="url(#grain)" opacity=".34"/>
</svg>