<svg xmlns="http://www.w3.org/2000/svg" viewBox="0 0 1600 1000" role="img" aria-label="Outdoor visual">
<defs><filter id="grain"><feTurbulence type="fractalNoise" baseFrequency="0.8" numOctaves="3" stitchTiles="stitch"/><feColorMatrix type="saturate" values="0"/><feComponentTransfer><feFuncA type="table" tableValues="0 0.12"/></feComponentTransfer></filter><linearGradient id="sky" x1="0" y1="0" x2="0" y2="1"><stop offset="0" stop-color="#D0A768"/><stop offset="0.55" stop-color="#75846D"/><stop offset="1" stop-color="#171B16"/></linearGradient><linearGradient id="earthg" x1="0" y1="0" x2="1" y2="1"><stop stop-color="#8A6A43"/><stop offset="1" stop-color="#10130F"/></linearGradient><radialGradient id="sun"><stop stop-color="#FFF4D6"/><stop offset="1" stop-color="#D0A768" stop-opacity="0"/></radialGradient></defs>
<rect width="1600" height="1000" fill="url(#sky)"/>
<circle cx="1160" cy="160" r="240" fill="url(#sun)"/>
<polygon points="-100,1000 -100,510 91,275 249,510 428,191 546,510 741,260 810,510 995,343 1110,510 1308,229 1451,510 1583,343 1700,1000" fill="#435044" opacity="0.82"/>
<polygon points="-100,1000 -100,620 38,458 151,620 359,398 472,620 668,525 762,620 965,420 1096,620 1299,378 1356,620 1477,376 1700,1000" fill="#2D382F" opacity="0.86"/>
<polygon points="-100,1000 -100,730 28,545 147,730 291,671 499,730 695,619 742,730 921,481 1023,730 1218,568 1370,730 1556,630 1639,730 1796,517 1700,1000" fill="#1A211B" opacity="0.8999999999999999"/>
<polygon points="-100,1000 -100,840 104,824 150,840 353,708 425,840 615,721 784,840 994,804 1056,840 1273,745 1325,840 1481,694 1568,840 1760,808 1700,1000" fill="#10130F" opacity="0.94"/>
<rect x="1060" y="650" width="270" height="210" rx="28" fill="#D0A768"/>
<path d="M1095 675 L1290 675 L1310 835 L1075 835Z" fill="#10130F" opacity=".85"/>
<circle cx="1200" cy="755" r="46" fill="#75846D"/>
<path d="M1140 650 Q1200 555 1260 650" fill="none" stroke="#D0A768" stroke-width="20"/>
<rect width="100%" height="100%" filter="url(#grain)" opacity=".34"/>
</svg>