<svg xmlns="http://www.w3.org/2000/svg" viewBox="0 0 1600 1000" role="img" aria-label="Outdoor visual">
<defs><filter id="grain"><feTurbulence type="fractalNoise" baseFrequency="0.8" numOctaves="3" stitchTiles="stitch"/><feColorMatrix type="saturate" values="0"/><feComponentTransfer><feFuncA type="table" tableValues="0 0.12"/></feComponentTransfer></filter><linearGradient id="sky" x1="0" y1="0" x2="0" y2="1"><stop offset="0" stop-color="#D0A768"/><stop offset="0.55" stop-color="#75846D"/><stop offset="1" stop-color="#171B16"/></linearGradient><linearGradient id="earthg" x1="0" y1="0" x2="1" y2="1"><stop stop-color="#8A6A43"/><stop offset="1" stop-color="#10130F"/></linearGradient><radialGradient id="sun"><stop stop-color="#FFF4D6"/><stop offset="1" stop-color="#D0A768" stop-opacity="0"/></radialGradient></defs>
<rect width="1600" height="1000" fill="url(#sky)"/>
<circle cx="1250" cy="220" r="240" fill="url(#sun)"/>
<polygon points="-100,1000 -100,510 24,244 194,510 387,267 435,510 614,338 779,510 934,265 1102,510 1226,349 1408,510 1569,265 1657,510 1872,327 1700,1000" fill="#435044" opacity="0.82"/>
<polygon points="-100,1000 -100,620 73,524 250,620 447,500 535,620 708,438 811,620 964,363 1109,620 1316,491 1387,620 1553,366 1644,620 1862,419 1700,1000" fill="#2D382F" opacity="0.86"/>
<polygon points="-100,1000 -100,730 76,619 218,730 343,584 532,730 682,679 789,730 947,631 1097,730 1315,587 1451,730 1611,619 1700,1000" fill="#1A211B" opacity="0.8999999999999999"/>
<polygon points="-100,1000 -100,840 77,685 195,840 323,705 518,840 679,676 866,840 1006,697 1213,840 1385,768 1483,840 1607,816 1700,1000" fill="#10130F" opacity="0.94"/>
<circle cx="229" cy="714.5462775425939" r="12.870879853568717" fill="#F3EFE6" opacity=".9"/>
<path d="M229 731.3774281203376 L229 823.4537224574061" stroke="#F3EFE6" stroke-width="13.860947534612464" stroke-linecap="round" opacity=".86"/>
<circle cx="310" cy="728.2356331084737" r="11.998850356178934" fill="#F3EFE6" opacity=".9"/>
<path d="M310 743.9264374204 L310 829.7643668915263" stroke="#F3EFE6" stroke-width="12.921838845115776" stroke-linecap="round" opacity=".86"/>
<circle cx="423" cy="734.9553363781127" r="10.410556856082453" fill="#F3EFE6" opacity=".9"/>
<path d="M423 748.5691414976052 L423 823.0446636218873" stroke="#F3EFE6" stroke-width="11.211368921934948" stroke-linecap="round" opacity=".86"/>
<circle cx="501" cy="770.6324972916171" r="10.723227912890497" fill="#F3EFE6" opacity=".9"/>
<path d="M501 784.6551799469355 L501 861.3675027083829" stroke="#F3EFE6" stroke-width="11.548091598497459" stroke-linecap="round" opacity=".86"/>
<circle cx="602" cy="752.0275203118507" r="12.284404289926192" fill="#F3EFE6" opacity=".9"/>
<path d="M602 768.0917413063696 L602 855.9724796881493" stroke="#F3EFE6" stroke-width="13.229358466074359" stroke-linecap="round" opacity=".86"/>
<circle cx="711" cy="769.6743235655163" r="11.186068975423417" fill="#F3EFE6" opacity=".9"/>
<path d="M711 784.3022599179931 L711 864.3256764344837" stroke="#F3EFE6" stroke-width="12.046535819686756" stroke-linecap="round" opacity=".86"/>
<circle cx="797" cy="721.4729939183894" r="13.360928710198873" fill="#F3EFE6" opacity=".9"/>
<path d="M797 738.9449776163417 L797 834.5270060816106" stroke="#F3EFE6" stroke-width="14.38869245713725" stroke-linecap="round" opacity=".86"/>
<circle cx="886" cy="727.1410800533039" r="11.31210835103727" fill="#F3EFE6" opacity=".9"/>
<path d="M886 741.9338371277372 L886 822.8589199466961" stroke="#F3EFE6" stroke-width="12.18227053188629" stroke-linecap="round" opacity=".86"/>
<circle cx="989" cy="723.4045631918614" r="13.613466881923678" fill="#F3EFE6" opacity=".9"/>
<path d="M989 741.206789114377 L989 838.5954368081386" stroke="#F3EFE6" stroke-width="14.660656642071652" stroke-linecap="round" opacity=".86"/>
<circle cx="1076" cy="728.8666985919474" r="12.558780332812432" fill="#F3EFE6" opacity=".9"/>
<path d="M1076 745.2897190271636 L1076 835.1333014080526" stroke="#F3EFE6" stroke-width="13.524840358413389" stroke-linecap="round" opacity=".86"/>
<circle cx="1182" cy="748.9909139123878" r="12.29305671161744" fill="#F3EFE6" opacity=".9"/>
<path d="M1182 765.0664496121951 L1182 853.0090860876122" stroke="#F3EFE6" stroke-width="13.238676458664935" stroke-linecap="round" opacity=".86"/>
<circle cx="1255" cy="715.5414837397715" r="11.690194752417648" fill="#F3EFE6" opacity=".9"/>
<path d="M1255 730.8286614929331 L1255 814.4585162602285" stroke="#F3EFE6" stroke-width="12.589440502603622" stroke-linecap="round" opacity=".86"/>
<rect width="100%" height="100%" filter="url(#grain)" opacity=".34"/>
</svg>