<svg xmlns="http://www.w3.org/2000/svg" viewBox="0 0 1600 1000" role="img" aria-label="Outdoor visual">
<defs><filter id="grain"><feTurbulence type="fractalNoise" baseFrequency="0.8" numOctaves="3" stitchTiles="stitch"/><feColorMatrix type="saturate" values="0"/><feComponentTransfer><feFuncA type="table" tableValues="0 0.12"/></feComponentTransfer></filter><linearGradient id="sky" x1="0" y1="0" x2="0" y2="1"><stop offset="0" stop-color="#D0A768"/><stop offset="0.55" stop-color="#75846D"/><stop offset="1" stop-color="#171B16"/></linearGradient><linearGradient id="earthg" x1="0" y1="0" x2="1" y2="1"><stop stop-color="#8A6A43"/><stop offset="1" stop-color="#10130F"/></linearGradient><radialGradient id="sun"><stop stop-color="#FFF4D6"/><stop offset="1" stop-color="#D0A768" stop-opacity="0"/></radialGradient></defs>
<rect width="1600" height="1000" fill="url(#sky)"/>
<circle cx="1230" cy="185" r="240" fill="url(#sun)"/>
<polygon points="-100,1000 -100,510 31,376 150,510 291,298 484,510 643,219 756,510 903,235 1073,510 1267,381 1400,510 1575,350 1700,1000" fill="#435044" opacity="0.82"/>
<polygon points="-100,1000 -100,620 112,435 250,620 417,405 559,620 743,422 833,620 956,526 1119,620 1279,416 1475,620 1649,438 1700,1000" fill="#2D382F" opacity="0.86"/>
<polygon points="-100,1000 -100,730 41,546 211,730 361,635 480,730 622,674 761,730 898,636 1066,730 1232,550 1371,730 1562,508 1634,730 1807,566 1700,1000" fill="#1A211B" opacity="0.8999999999999999"/>
<polygon points="-100,1000 -100,840 117,691 186,840 351,674 472,840 612,711 808,840 1019,723 1142,840 1345,707 1449,840 1631,762 1700,1000" fill="#10130F" opacity="0.94"/>
<path d="M0 760 C340 700 520 800 830 745 C1120 695 1360 720 1600 660 L1600 1000 L0 1000Z" fill="#6F8D8C" opacity=".62"/>
<path d="M0 805 C390 755 630 835 970 780 C1250 735 1430 770 1600 720" fill="none" stroke="#F3EFE6" stroke-opacity=".25" stroke-width="3"/>
<circle cx="490" cy="626.0" r="21.599999999999998" fill="#111510"/>
<path d="M490 650.0 L472.0 752.0 L498.4 825.2 M484.0 746.0 L439.6 810.8 M494.8 746.0 L544.0 801.2" fill="none" stroke="#111510" stroke-width="19.2" stroke-linecap="round"/>
<rect x="439.6" y="656.0" width="42.0" height="74.39999999999999" rx="16.8" fill="#8A6A43"/>
<circle cx="620" cy="681.5" r="17.099999999999998" fill="#111510"/>
<path d="M620 700.5 L605.75 781.25 L626.65 839.2 M615.25 776.5 L580.1 827.8 M623.8 776.5 L662.75 820.2" fill="none" stroke="#111510" stroke-width="15.2" stroke-linecap="round"/>
<rect x="580.1" y="705.25" width="33.25" height="58.9" rx="13.299999999999999" fill="#8A6A43"/>
<circle cx="745" cy="719.0" r="14.4" fill="#111510"/>
<path d="M745 735.0 L733.0 803.0 L750.6 851.8 M741.0 799.0 L711.4 842.2 M748.2 799.0 L781.0 835.8" fill="none" stroke="#111510" stroke-width="12.8" stroke-linecap="round"/>
<rect x="711.4" y="739.0" width="28.0" height="49.6" rx="11.200000000000001" fill="#8A6A43"/>
<rect width="100%" height="100%" filter="url(#grain)" opacity=".34"/>
</svg>