<svg xmlns="http://www.w3.org/2000/svg" viewBox="0 0 1600 1000" role="img" aria-label="Outdoor visual">
<defs><filter id="grain"><feTurbulence type="fractalNoise" baseFrequency="0.8" numOctaves="3" stitchTiles="stitch"/><feColorMatrix type="saturate" values="0"/><feComponentTransfer><feFuncA type="table" tableValues="0 0.12"/></feComponentTransfer></filter><linearGradient id="sky" x1="0" y1="0" x2="0" y2="1"><stop offset="0" stop-color="#D0A768"/><stop offset="0.55" stop-color="#75846D"/><stop offset="1" stop-color="#171B16"/></linearGradient><linearGradient id="earthg" x1="0" y1="0" x2="1" y2="1"><stop stop-color="#8A6A43"/><stop offset="1" stop-color="#10130F"/></linearGradient><radialGradient id="sun"><stop stop-color="#FFF4D6"/><stop offset="1" stop-color="#D0A768" stop-opacity="0"/></radialGradient></defs>
<rect width="1600" height="1000" fill="#D8C79E"/>
<circle cx="1230" cy="170" r="160" fill="#F3EFE6" opacity=".55"/>
<rect x="-62" y="509" width="26" height="321" fill="#75846D" opacity=".86"/>
<polygon points="-110,629 -44,449 20,629" fill="#75846D" opacity=".92"/>
<rect x="-31" y="550" width="39" height="280" fill="#334337" opacity=".86"/>
<polygon points="-79,670 -13,490 51,670" fill="#334337" opacity=".92"/>
<rect x="62" y="174" width="28" height="656" fill="#465645" opacity=".86"/>
<polygon points="14,294 80,114 144,294" fill="#465645" opacity=".92"/>
<rect x="98" y="411" width="24" height="419" fill="#75846D" opacity=".86"/>
<polygon points="50,531 116,351 180,531" fill="#75846D" opacity=".92"/>
<rect x="188" y="275" width="24" height="555" fill="#253128" opacity=".86"/>
<polygon points="140,395 206,215 270,395" fill="#253128" opacity=".92"/>
<rect x="263" y="267" width="39" height="563" fill="#465645" opacity=".86"/>
<polygon points="215,387 281,207 345,387" fill="#465645" opacity=".92"/>
<rect x="297" y="333" width="20" height="497" fill="#465645" opacity=".86"/>
<polygon points="249,453 315,273 379,453" fill="#465645" opacity=".92"/>
<rect x="380" y="341" width="32" height="489" fill="#465645" opacity=".86"/>
<polygon points="332,461 398,281 462,461" fill="#465645" opacity=".92"/>
<rect x="428" y="450" width="21" height="380" fill="#465645" opacity=".86"/>
<polygon points="380,570 446,390 510,570" fill="#465645" opacity=".92"/>
<rect x="489" y="249" width="38" height="581" fill="#334337" opacity=".86"/>
<polygon points="441,369 507,189 571,369" fill="#334337" opacity=".92"/>
<rect x="575" y="301" width="34" height="529" fill="#334337" opacity=".86"/>
<polygon points="527,421 593,241 657,421" fill="#334337" opacity=".92"/>
<rect x="653" y="220" width="38" height="610" fill="#253128" opacity=".86"/>
<polygon points="605,340 671,160 735,340" fill="#253128" opacity=".92"/>
<rect x="705" y="425" width="27" height="405" fill="#75846D" opacity=".86"/>
<polygon points="657,545 723,365 787,545" fill="#75846D" opacity=".92"/>
<rect x="769" y="249" width="20" height="581" fill="#253128" opacity=".86"/>
<polygon points="721,369 787,189 851,369" fill="#253128" opacity=".92"/>
<rect x="844" y="203" width="21" height="627" fill="#334337" opacity=".86"/>
<polygon points="796,323 862,143 926,323" fill="#334337" opacity=".92"/>
<rect x="894" y="391" width="30" height="439" fill="#334337" opacity=".86"/>
<polygon points="846,511 912,331 976,511" fill="#334337" opacity=".92"/>
<rect x="972" y="436" width="37" height="394" fill="#334337" opacity=".86"/>
<polygon points="924,556 990,376 1054,556" fill="#334337" opacity=".92"/>
<rect x="1020" y="193" width="24" height="637" fill="#253128" opacity=".86"/>
<polygon points="972,313 1038,133 1102,313" fill="#253128" opacity=".92"/>
<rect x="1082" y="542" width="35" height="288" fill="#465645" opacity=".86"/>
<polygon points="1034,662 1100,482 1164,662" fill="#465645" opacity=".92"/>
<rect x="1156" y="359" width="34" height="471" fill="#75846D" opacity=".86"/>
<polygon points="1108,479 1174,299 1238,479" fill="#75846D" opacity=".92"/>
<rect x="1226" y="402" width="39" height="428" fill="#334337" opacity=".86"/>
<polygon points="1178,522 1244,342 1308,522" fill="#334337" opacity=".92"/>
<rect x="1298" y="523" width="31" height="307" fill="#334337" opacity=".86"/>
<polygon points="1250,643 1316,463 1380,643" fill="#334337" opacity=".92"/>
<rect x="1357" y="501" width="25" height="329" fill="#75846D" opacity=".86"/>
<polygon points="1309,621 1375,441 1439,621" fill="#75846D" opacity=".92"/>
<rect x="1402" y="242" width="32" height="588" fill="#75846D" opacity=".86"/>
<polygon points="1354,362 1420,182 1484,362" fill="#75846D" opacity=".92"/>
<rect x="1486" y="511" width="33" height="319" fill="#75846D" opacity=".86"/>
<polygon points="1438,631 1504,451 1568,631" fill="#75846D" opacity=".92"/>
<rect x="1546" y="189" width="20" height="641" fill="#75846D" opacity=".86"/>
<polygon points="1498,309 1564,129 1628,309" fill="#75846D" opacity=".92"/>
<rect x="1604" y="202" width="32" height="628" fill="#465645" opacity=".86"/>
<polygon points="1556,322 1622,142 1686,322" fill="#465645" opacity=".92"/>
<rect x="1688" y="181" width="18" height="649" fill="#334337" opacity=".86"/>
<polygon points="1640,301 1706,121 1770,301" fill="#334337" opacity=".92"/>
<rect x="1723" y="275" width="26" height="555" fill="#253128" opacity=".86"/>
<polygon points="1675,395 1741,215 1805,395" fill="#253128" opacity=".92"/>
<rect x="1810" y="454" width="34" height="376" fill="#465645" opacity=".86"/>
<polygon points="1762,574 1828,394 1892,574" fill="#465645" opacity=".92"/>
<path d="M0 775 C430 680 820 870 1600 700 L1600 1000 L0 1000Z" fill="#171B16"/>
<circle cx="520" cy="690" r="22" fill="#D7B08A"/>
<path d="M520 715 L520 850" stroke="#F3EFE6" stroke-width="34" stroke-linecap="round"/>
<circle cx="650" cy="690" r="22" fill="#D7B08A"/>
<path d="M650 715 L650 850" stroke="#F3EFE6" stroke-width="34" stroke-linecap="round"/>
<circle cx="790" cy="690" r="22" fill="#D7B08A"/>
<path d="M790 715 L790 850" stroke="#F3EFE6" stroke-width="34" stroke-linecap="round"/>
<circle cx="920" cy="690" r="22" fill="#D7B08A"/>
<path d="M920 715 L920 850" stroke="#F3EFE6" stroke-width="34" stroke-linecap="round"/>
<rect width="100%" height="100%" filter="url(#grain)" opacity=".34"/>
</svg>