<svg xmlns="http://www.w3.org/2000/svg" viewBox="0 0 1600 1000" role="img" aria-label="Outdoor visual">
<defs><filter id="grain"><feTurbulence type="fractalNoise" baseFrequency="0.8" numOctaves="3" stitchTiles="stitch"/><feColorMatrix type="saturate" values="0"/><feComponentTransfer><feFuncA type="table" tableValues="0 0.12"/></feComponentTransfer></filter><linearGradient id="sky" x1="0" y1="0" x2="0" y2="1"><stop offset="0" stop-color="#D0A768"/><stop offset="0.55" stop-color="#75846D"/><stop offset="1" stop-color="#171B16"/></linearGradient><linearGradient id="earthg" x1="0" y1="0" x2="1" y2="1"><stop stop-color="#8A6A43"/><stop offset="1" stop-color="#10130F"/></linearGradient><radialGradient id="sun"><stop stop-color="#FFF4D6"/><stop offset="1" stop-color="#D0A768" stop-opacity="0"/></radialGradient></defs>
<rect width="1600" height="1000" fill="url(#sky)"/>
<circle cx="980" cy="120" r="240" fill="url(#sun)"/>
<polygon points="-100,1000 -100,510 67,332 188,510 332,358 518,510 648,379 775,510 959,327 1041,510 1243,288 1284,510 1466,273 1582,510 1765,291 1700,1000" fill="#435044" opacity="0.82"/>
<polygon points="-100,1000 -100,620 71,486 151,620 300,411 488,620 697,530 762,620 934,402 1062,620 1274,438 1316,620 1469,366 1568,620 1737,519 1700,1000" fill="#2D382F" opacity="0.86"/>
<polygon points="-100,1000 -100,730 33,584 224,730 387,666 494,730 625,504 797,730 983,514 1152,730 1346,627 1495,730 1692,644 1700,1000" fill="#1A211B" opacity="0.8999999999999999"/>
<polygon points="-100,1000 -100,840 24,687 202,840 346,646 460,840 638,677 793,840 969,676 1069,840 1234,683 1418,840 1555,716 1678,840 1874,630 1700,1000" fill="#10130F" opacity="0.94"/>
<path d="M0 760 C340 700 520 800 830 745 C1120 695 1360 720 1600 660 L1600 1000 L0 1000Z" fill="#6F8D8C" opacity=".62"/>
<path d="M0 805 C390 755 630 835 970 780 C1250 735 1430 770 1600 720" fill="none" stroke="#F3EFE6" stroke-opacity=".25" stroke-width="3"/>
<rect width="100%" height="100%" filter="url(#grain)" opacity=".34"/>
</svg>