<?xml version="1.0" encoding="UTF-8"?>
<svg version="1.1" xmlns="http://www.w3.org/2000/svg" width="1254" height="1254">
<path d="M0 0 C413.82 0 827.64 0 1254 0 C1254 413.82 1254 827.64 1254 1254 C840.18 1254 426.36 1254 0 1254 C0 840.18 0 426.36 0 0 Z " fill="#101010" transform="translate(0,0)"/>
<path d="M0 0 C140.58 0 281.16 0 426 0 C424.22901306 4.42746736 422.19342919 8.480029 419.875 12.625 C419.22954224 13.78322266 419.22954224 13.78322266 418.57104492 14.96484375 C413.94454075 23.20112596 409.10685738 31.31144053 404.27075195 39.42578125 C398.62176315 48.90957418 393.09161002 58.45842814 387.60864258 68.0390625 C386.7214856 69.5859375 386.7214856 69.5859375 385.81640625 71.1640625 C385.29506104 72.07623535 384.77371582 72.9884082 384.23657227 73.92822266 C383 76 383 76 382 77 C380.38402434 77.09709605 378.76377878 77.12371596 377.14488888 77.12304783 C375.55869902 77.1260344 375.55869902 77.1260344 373.94046491 77.12908131 C372.76442042 77.12616847 371.58837593 77.12325563 370.37669373 77.12025452 C369.13852294 77.12110894 367.90035215 77.12196337 366.62466103 77.12284368 C363.17222261 77.12421194 359.71984017 77.12106421 356.26740849 77.11606562 C352.55028158 77.11176462 348.83315653 77.11320729 345.11602783 77.1139679 C338.67064945 77.11449335 332.22528116 77.11134428 325.77990532 77.10573006 C316.46086651 77.09761801 307.14183259 77.09500014 297.82279063 77.09374207 C282.7048557 77.09155108 267.58692615 77.08488974 252.46899414 77.07543945 C237.77954129 77.06626654 223.0900899 77.05919658 208.40063477 77.05493164 C207.02958164 77.05452964 207.02958164 77.05452964 205.63083047 77.05411953 C198.48293577 77.05204022 191.33504105 77.05008326 184.18714631 77.04816496 C149.12475926 77.03872386 114.06238569 77.01860732 79 77 C79 124.52 79 172.04 79 221 C150.28 221 221.56 221 295 221 C288.25396825 234.49206349 288.25396825 234.49206349 285.51171875 239.05859375 C284.89603027 240.08992432 284.2803418 241.12125488 283.64599609 242.18383789 C282.99969238 243.25754639 282.35338867 244.33125488 281.6875 245.4375 C280.27552603 247.79839476 278.86650925 250.16105203 277.45703125 252.5234375 C276.9144165 253.43141838 276.9144165 253.43141838 276.36083984 254.35774231 C271.79286023 262.0072845 267.30115909 269.70151994 262.80477905 277.39328003 C261.7843079 279.13871842 260.76325463 280.88381644 259.7421875 282.62890625 C259.1632373 283.61963135 258.58428711 284.61035645 257.98779297 285.63110352 C257.33182129 286.74283936 256.67584961 287.8545752 256 289 C255.69283051 289.81727223 255.38566101 290.63454447 255.06918335 291.47658253 C253.70209012 294.58881742 252.45902464 296.63321594 250 299 C244.57592565 300.50472925 239.19619067 300.26512861 233.62158203 300.13525391 C231.90874903 300.13218911 230.1959034 300.13352798 228.4830761 300.13890648 C223.90145183 300.14116155 219.3224466 300.08327299 214.74143982 300.01280212 C210.44074384 299.95578791 206.14068007 299.95316819 201.83959961 299.94604492 C189.26772031 299.89360185 176.69632694 299.75398937 164.125 299.625 C121.988125 299.315625 121.988125 299.315625 79 299 C79 364.01 79 429.02 79 496 C52.93 496 26.86 496 0 496 C0 332.32 0 168.64 0 0 Z " fill="#F8F3ED" transform="translate(249,357)"/>
<path d="M0 0 C3 1 3 1 4.43530273 3.36303711 C5.17695679 4.9293689 5.17695679 4.9293689 5.93359375 6.52734375 C6.49369141 7.69837646 7.05378906 8.86940918 7.63085938 10.07592773 C8.2333827 11.36297351 8.83558788 12.65016827 9.4375 13.9375 C10.06631533 15.26345433 10.69588214 16.58905253 11.32617188 17.91430664 C13.23357422 21.93538351 15.1201045 25.96600156 17 30 C17.79301514 31.7015625 17.79301514 31.7015625 18.60205078 33.4375 C21.07053204 38.75001338 23.5217809 44.07028667 25.96484375 49.39453125 C29.14108225 56.31540948 32.34438269 63.22350506 35.5625 70.125 C35.84640594 70.73397125 36.13031189 71.3429425 36.42282104 71.97036743 C42.1523681 84.25111979 47.97538968 96.48713303 53.79919434 108.72338867 C60.42487266 122.64749639 66.95863598 136.61025907 73.42871094 150.60742188 C75.95989705 156.07251855 78.50749848 161.52993651 81.05587769 166.98703003 C81.92888089 168.85654242 82.8015188 170.72622493 83.67407227 172.59594727 C86.42528265 178.49048848 89.17900909 184.3838403 91.93727112 190.27508545 C93.23087968 193.03846322 94.52346735 195.80231791 95.81594849 198.56622314 C96.43251789 199.88396976 97.04959338 201.20147971 97.66720581 202.51873779 C98.52417501 204.34654354 99.3793132 206.17520743 100.234375 208.00390625 C100.72131836 209.04361572 101.20826172 210.0833252 101.70996094 211.15454102 C102.88431513 213.74483211 103.96862661 216.35002794 105 219 C109.46815078 214.78476341 113.14499326 210.12085479 116.875 205.25 C120.4296875 200.640625 120.4296875 200.640625 122.19824219 198.34960938 C123.45355501 196.71259981 124.69822087 195.06739403 125.93457031 193.41601562 C126.55686523 192.59294922 127.17916016 191.76988281 127.8203125 190.921875 C128.38250488 190.1700293 128.94469727 189.41818359 129.52392578 188.64355469 C130.01103027 188.10118164 130.49813477 187.55880859 131 187 C131.66 187 132.32 187 133 187 C133.39155273 187.70793701 133.78310547 188.41587402 134.18652344 189.14526367 C143.99779625 206.87629073 143.99779625 206.87629073 154 224.5 C159.84086498 234.66666295 165.52765778 244.91650671 171.2109375 255.171875 C174.78826426 261.62530673 178.39021664 268.06468042 182 274.5 C187.48667384 284.28402633 192.94067605 294.08583526 198.38354492 303.89428711 C203.26172896 312.6811058 208.16722064 321.45237699 213.08203125 330.21875 C216.79834697 336.84899508 220.49800804 343.48816048 224.18408203 350.13525391 C227.66769981 356.41251112 231.17682965 362.67534115 234.6875 368.9375 C239.53334756 377.58548442 244.37183327 386.23752601 249.19229126 394.89968872 C250.16535023 396.64770974 251.13966739 398.39503019 252.11401367 400.14233398 C252.70931885 401.21298096 253.30462402 402.28362793 253.91796875 403.38671875 C254.44156982 404.32733154 254.9651709 405.26794434 255.50463867 406.23706055 C260 414.54302041 260 414.54302041 260 417 C251.6290349 417.23206782 243.25942017 417.40955376 234.8860302 417.51812172 C230.99740612 417.57024104 227.11098732 417.64086975 223.22363281 417.75439453 C219.46923459 417.8633458 215.7169512 417.92289578 211.9610939 417.94877243 C210.53109549 417.96720113 209.10120866 418.00319584 207.67211533 418.05730057 C203.27835425 418.21697519 199.2411825 418.21805507 195 417 C191.99195446 414.02692009 190.56814916 410.87968287 189 407 C188.12767076 405.43533054 187.23616173 403.88101988 186.31640625 402.34375 C185.39751427 400.72969192 184.4795867 399.1150845 183.5625 397.5 C178.98512822 389.46354223 174.37759098 381.44513912 169.75 373.4375 C158.87445481 354.60663006 148.08598754 335.72675007 137.39916992 316.78808594 C133.29221247 309.51033015 129.15820747 302.2485973 125 295 C121.32329416 296.51052023 119.28125538 298.6488615 116.6875 301.625 C115.89859375 302.52347656 115.1096875 303.42195313 114.296875 304.34765625 C113.53890625 305.22292969 112.7809375 306.09820313 112 307 C110.81273863 308.35437589 109.62526059 309.7085619 108.4375 311.0625 C107.88835937 311.69285156 107.33921875 312.32320312 106.7734375 312.97265625 C103.53952142 316.66957793 100.267917 320.33314248 97 324 C92.99208822 322.66402941 92.25016763 320.27247829 90.4453125 316.7109375 C90.10763351 316.06469421 89.76995453 315.41845093 89.42204285 314.75262451 C88.69472613 313.35887498 87.97164879 311.96290673 87.25234985 310.56500244 C85.35099958 306.87141812 83.41819744 303.1943405 81.48828125 299.515625 C81.10328964 298.77994293 80.71829803 298.04426086 80.32164001 297.2862854 C77.10793611 291.16130965 73.75267657 285.12578397 70.3125 279.125 C65.68977238 271.04263604 61.2102783 262.89451295 56.8125 254.6875 C51.75879965 245.25681148 46.63666846 235.87189142 41.41357422 226.53417969 C39.76040619 223.57046914 38.11624422 220.60184645 36.47265625 217.6328125 C29.22337512 204.54241076 21.9183361 191.48746982 14.44824219 178.52148438 C12.91816049 175.85751206 11.39997852 173.18697152 9.8828125 170.515625 C8.88041014 168.76030141 7.87781325 167.00508889 6.875 165.25 C6.41319336 164.43273437 5.95138672 163.61546875 5.47558594 162.7734375 C5.04793945 162.02835938 4.62029297 161.28328125 4.1796875 160.515625 C3.80569824 159.85852539 3.43170898 159.20142578 3.04638672 158.52441406 C2.06472391 156.83055829 2.06472391 156.83055829 0 156 C-0.26772217 156.70979004 -0.53544434 157.41958008 -0.8112793 158.15087891 C-2.03950616 161.0946882 -3.46475783 163.80124774 -5.01953125 166.5859375 C-5.62273193 167.6692334 -6.22593262 168.7525293 -6.84741211 169.86865234 C-7.50235567 171.03748294 -8.15738724 172.20626423 -8.8125 173.375 C-9.49312158 174.59445127 -10.17353869 175.81401669 -10.85375977 177.03369141 C-15.54124109 185.43032499 -20.27622454 193.79983704 -25.01953125 202.16503906 C-31.07053249 212.85685058 -36.98846079 223.62174824 -42.90942383 234.38587952 C-45.30668267 238.74328137 -47.71023823 243.09716313 -50.1171875 247.44921875 C-56.88982108 259.6983896 -63.61892525 271.96812231 -70.25830078 284.2902832 C-74.62597068 292.36958506 -79.12709398 300.36976193 -83.68823242 308.34130859 C-86.62563856 313.49076616 -89.40350011 318.6700146 -92 324 C-96.27616834 322.0839619 -98.74694441 319.11168987 -101.6875 315.5625 C-102.47435181 314.63002441 -102.47435181 314.63002441 -103.27709961 313.67871094 C-107.31149546 308.88184678 -111.26152021 304.01715519 -115.16015625 299.109375 C-117.00684544 296.80590391 -117.00684544 296.80590391 -120 295 C-120.57161865 295.99290039 -120.57161865 295.99290039 -121.15478516 297.00585938 C-128.07404382 309.02101663 -135.00377176 321.0294354 -142 333 C-146.86104342 341.31751053 -151.69134017 349.65209711 -156.5 358 C-161.35615596 366.42770749 -166.22606347 374.84707836 -171.125 383.25 C-171.62580078 384.10980469 -172.12660156 384.96960938 -172.64257812 385.85546875 C-173.72485129 387.70962731 -174.84324686 389.54296925 -175.98852539 391.35888672 C-177.75401625 394.31693362 -178.92074928 397.36215762 -180.13452148 400.58251953 C-182.78414191 406.93005488 -185.46880175 412.69952873 -191 417 C-200.99736182 420.38856962 -212.11432715 419.18029666 -222.48773193 418.51062012 C-226.38045876 418.28352991 -230.27635749 418.18468334 -234.17382812 418.07421875 C-241.79118991 417.83978717 -249.39289545 417.46571465 -257 417 C-255.62300695 412.72206446 -254.04611641 409.02993123 -251.796875 405.1328125 C-251.15347168 404.01237549 -250.51006836 402.89193848 -249.84716797 401.73754883 C-249.14822882 400.53329807 -248.44916981 399.32911686 -247.75 398.125 C-247.0257734 396.86833099 -246.30198388 395.61140999 -245.57861328 394.35424805 C-240.47824766 385.50221801 -235.31712536 376.68556545 -230.15136719 367.87158203 C-225.40963874 359.75846582 -220.81925836 351.56562139 -216.24951172 343.35473633 C-211.69156852 335.18465814 -206.99607221 327.10197658 -202.25878906 319.03491211 C-197.99823898 311.76035104 -193.85185961 304.42756975 -189.75 297.0625 C-185.5468249 289.51749862 -181.296307 282.01181455 -176.88867188 274.58447266 C-173.1222612 268.23282437 -169.43403454 261.83721833 -165.75 255.4375 C-160.29637732 245.96722351 -154.80947457 236.5172829 -149.29467773 227.08251953 C-144.12385529 218.22894445 -138.99895925 209.34925543 -133.88476562 200.46289062 C-133.28986328 199.42970703 -132.69496094 198.39652344 -132.08203125 197.33203125 C-131.55843018 196.42171143 -131.0348291 195.5113916 -130.49536133 194.57348633 C-129.02008397 192.0345641 -127.51700274 189.51417354 -126 187 C-121.35603804 188.47714122 -119.63499633 192.35480475 -117.3125 196.3125 C-113.32886044 202.9179407 -109.11172078 209.25597414 -104.6171875 215.5234375 C-103 218 -103 218 -103 220 C-102.34 220 -101.68 220 -101 220 C-100.83612793 218.95017944 -100.83612793 218.95017944 -100.66894531 217.87915039 C-99.91469846 214.63286094 -98.72382567 211.94591706 -97.296875 208.93359375 C-96.73564941 207.74088867 -96.17442383 206.54818359 -95.59619141 205.31933594 C-94.98083059 204.02537335 -94.36543243 202.73142853 -93.75 201.4375 C-93.11185826 200.08524825 -92.47433529 198.73270434 -91.83740234 197.37988281 C-90.52793867 194.59919746 -89.21626368 191.81957118 -87.90332031 189.04052734 C-85.11236687 183.12497674 -82.37082952 177.1865911 -79.625 171.25 C-72.82853598 156.58975534 -65.94245463 141.97204588 -59.05273438 127.35546875 C-53.02808078 114.57364609 -47.01211658 101.78772388 -41 89 C-40.67517639 88.30910278 -40.35035278 87.61820557 -40.01568604 86.90637207 C-37.75868782 82.10507796 -35.50348482 77.3029441 -33.25 72.5 C-32.94013153 71.83967773 -32.63026306 71.17935547 -32.31100464 70.49902344 C-27.49549954 60.23335914 -22.74293308 49.94003741 -18.01269531 39.63476562 C-15.43502244 34.03945919 -12.79838242 28.48824672 -10 23 C-7.69598461 18.47585328 -5.66127395 13.93888249 -3.84375 9.19921875 C-2.65185198 6.09255863 -1.32659929 3.05117836 0 0 Z " fill="#C99F58" transform="translate(719,436)"/>
<path d="M0 0 C6.13869493 4.24085413 10.68431823 10.32639219 13.046875 17.4140625 C13.94306121 28.02138128 12.51782769 35.34873903 5.859375 43.6640625 C0.17704062 49.62038784 -4.86801058 52.56784328 -13.14575195 53.05444336 C-22.59219593 53.25272108 -28.76991522 51.26501524 -35.78125 44.703125 C-41.78263455 38.26474643 -44.39208089 30.44137048 -44.2265625 21.65234375 C-43.23097636 13.50276006 -38.94579092 6.84256531 -32.953125 1.4140625 C-23.31300043 -5.54376799 -10.22361117 -5.98047843 0 0 Z " fill="#F6F1EB" transform="translate(1056.953125,799.5859375)"/>
<path d="M0 0 C3 1 3 1 4.6875 3.9375 C6 7 6 7 6 9 C5.34 9 4.68 9 4 9 C3.34 7.02 2.68 5.04 2 3 C1.01 3.33 0.02 3.66 -1 4 C-0.67 2.68 -0.34 1.36 0 0 Z " fill="#BA9556" transform="translate(719,436)"/>
<path d="M0 0 C0.99 0.33 1.98 0.66 3 1 C-0.465 3.97 -0.465 3.97 -4 7 C-3.04065919 3.16263678 -2.76390737 2.40339772 0 0 Z " fill="#1B1916" transform="translate(824,750)"/>
<path d="M0 0 C0.66 0 1.32 0 2 0 C2.99 2.97 3.98 5.94 5 9 C4.34 9 3.68 9 3 9 C0 3.375 0 3.375 0 0 Z " fill="#B59156" transform="translate(732,462)"/>
<path d="M0 0 C0.66 0.33 1.32 0.66 2 1 C0.02 3.31 -1.96 5.62 -4 8 C-4.33 7.34 -4.66 6.68 -5 6 C-3.35 4.02 -1.7 2.04 0 0 Z " fill="#1F1E19" transform="translate(842,730)"/>
</svg>
