<svg xmlns="http://www.w3.org/2000/svg" viewBox="0 0 1600 1000" role="img" aria-label="Outdoor visual">
<defs><filter id="grain"><feTurbulence type="fractalNoise" baseFrequency="0.8" numOctaves="3" stitchTiles="stitch"/><feColorMatrix type="saturate" values="0"/><feComponentTransfer><feFuncA type="table" tableValues="0 0.12"/></feComponentTransfer></filter><linearGradient id="sky" x1="0" y1="0" x2="0" y2="1"><stop offset="0" stop-color="#D0A768"/><stop offset="0.55" stop-color="#75846D"/><stop offset="1" stop-color="#171B16"/></linearGradient><linearGradient id="earthg" x1="0" y1="0" x2="1" y2="1"><stop stop-color="#8A6A43"/><stop offset="1" stop-color="#10130F"/></linearGradient><radialGradient id="sun"><stop stop-color="#FFF4D6"/><stop offset="1" stop-color="#D0A768" stop-opacity="0"/></radialGradient></defs>
<rect width="1600" height="1000" fill="#D8C79E"/>
<circle cx="1230" cy="170" r="160" fill="#F3EFE6" opacity=".55"/>
<rect x="-69" y="237" width="26" height="593" fill="#465645" opacity=".86"/>
<polygon points="-117,357 -51,177 13,357" fill="#465645" opacity=".92"/>
<rect x="-25" y="455" width="28" height="375" fill="#253128" opacity=".86"/>
<polygon points="-73,575 -7,395 57,575" fill="#253128" opacity=".92"/>
<rect x="64" y="313" width="28" height="517" fill="#253128" opacity=".86"/>
<polygon points="16,433 82,253 146,433" fill="#253128" opacity=".92"/>
<rect x="132" y="235" width="30" height="595" fill="#253128" opacity=".86"/>
<polygon points="84,355 150,175 214,355" fill="#253128" opacity=".92"/>
<rect x="172" y="190" width="31" height="640" fill="#75846D" opacity=".86"/>
<polygon points="124,310 190,130 254,310" fill="#75846D" opacity=".92"/>
<rect x="237" y="464" width="19" height="366" fill="#334337" opacity=".86"/>
<polygon points="189,584 255,404 319,584" fill="#334337" opacity=".92"/>
<rect x="299" y="483" width="40" height="347" fill="#253128" opacity=".86"/>
<polygon points="251,603 317,423 381,603" fill="#253128" opacity=".92"/>
<rect x="381" y="498" width="24" height="332" fill="#465645" opacity=".86"/>
<polygon points="333,618 399,438 463,618" fill="#465645" opacity=".92"/>
<rect x="436" y="179" width="20" height="651" fill="#75846D" opacity=".86"/>
<polygon points="388,299 454,119 518,299" fill="#75846D" opacity=".92"/>
<rect x="504" y="443" width="26" height="387" fill="#75846D" opacity=".86"/>
<polygon points="456,563 522,383 586,563" fill="#75846D" opacity=".92"/>
<rect x="573" y="528" width="40" height="302" fill="#334337" opacity=".86"/>
<polygon points="525,648 591,468 655,648" fill="#334337" opacity=".92"/>
<rect x="617" y="340" width="30" height="490" fill="#253128" opacity=".86"/>
<polygon points="569,460 635,280 699,460" fill="#253128" opacity=".92"/>
<rect x="713" y="479" width="25" height="351" fill="#253128" opacity=".86"/>
<polygon points="665,599 731,419 795,599" fill="#253128" opacity=".92"/>
<rect x="774" y="174" width="37" height="656" fill="#253128" opacity=".86"/>
<polygon points="726,294 792,114 856,294" fill="#253128" opacity=".92"/>
<rect x="812" y="488" width="24" height="342" fill="#334337" opacity=".86"/>
<polygon points="764,608 830,428 894,608" fill="#334337" opacity=".92"/>
<rect x="898" y="546" width="22" height="284" fill="#253128" opacity=".86"/>
<polygon points="850,666 916,486 980,666" fill="#253128" opacity=".92"/>
<rect x="976" y="542" width="36" height="288" fill="#253128" opacity=".86"/>
<polygon points="928,662 994,482 1058,662" fill="#253128" opacity=".92"/>
<rect x="1038" y="275" width="31" height="555" fill="#334337" opacity=".86"/>
<polygon points="990,395 1056,215 1120,395" fill="#334337" opacity=".92"/>
<rect x="1076" y="347" width="38" height="483" fill="#334337" opacity=".86"/>
<polygon points="1028,467 1094,287 1158,467" fill="#334337" opacity=".92"/>
<rect x="1142" y="192" width="23" height="638" fill="#334337" opacity=".86"/>
<polygon points="1094,312 1160,132 1224,312" fill="#334337" opacity=".92"/>
<rect x="1204" y="523" width="35" height="307" fill="#465645" opacity=".86"/>
<polygon points="1156,643 1222,463 1286,643" fill="#465645" opacity=".92"/>
<rect x="1276" y="413" width="21" height="417" fill="#253128" opacity=".86"/>
<polygon points="1228,533 1294,353 1358,533" fill="#253128" opacity=".92"/>
<rect x="1357" y="429" width="37" height="401" fill="#334337" opacity=".86"/>
<polygon points="1309,549 1375,369 1439,549" fill="#334337" opacity=".92"/>
<rect x="1429" y="528" width="39" height="302" fill="#465645" opacity=".86"/>
<polygon points="1381,648 1447,468 1511,648" fill="#465645" opacity=".92"/>
<rect x="1495" y="248" width="29" height="582" fill="#253128" opacity=".86"/>
<polygon points="1447,368 1513,188 1577,368" fill="#253128" opacity=".92"/>
<rect x="1534" y="251" width="32" height="579" fill="#465645" opacity=".86"/>
<polygon points="1486,371 1552,191 1616,371" fill="#465645" opacity=".92"/>
<rect x="1605" y="345" width="36" height="485" fill="#334337" opacity=".86"/>
<polygon points="1557,465 1623,285 1687,465" fill="#334337" opacity=".92"/>
<rect x="1658" y="356" width="18" height="474" fill="#465645" opacity=".86"/>
<polygon points="1610,476 1676,296 1740,476" fill="#465645" opacity=".92"/>
<rect x="1749" y="493" width="25" height="337" fill="#334337" opacity=".86"/>
<polygon points="1701,613 1767,433 1831,613" fill="#334337" opacity=".92"/>
<rect x="1815" y="412" width="20" height="418" fill="#465645" opacity=".86"/>
<polygon points="1767,532 1833,352 1897,532" fill="#465645" opacity=".92"/>
<path d="M0 775 C430 680 820 870 1600 700 L1600 1000 L0 1000Z" fill="#171B16"/>
<circle cx="520" cy="440" r="100" fill="#D7B08A"/>
<path d="M390 500 Q520 420 660 505 L760 950 L280 950Z" fill="#10130F"/>
<rect x="570" y="420" width="200" height="135" rx="20" fill="#171B16"/>
<circle cx="690" cy="488" r="65" fill="#2D382F" stroke="#D0A768" stroke-width="14"/>
<path d="M580 485 L470 545" stroke="#10130F" stroke-width="30" stroke-linecap="round"/>
<rect width="100%" height="100%" filter="url(#grain)" opacity=".34"/>
</svg>