<svg xmlns="http://www.w3.org/2000/svg" viewBox="0 0 1600 1000" role="img" aria-label="Outdoor visual">
<defs><filter id="grain"><feTurbulence type="fractalNoise" baseFrequency="0.8" numOctaves="3" stitchTiles="stitch"/><feColorMatrix type="saturate" values="0"/><feComponentTransfer><feFuncA type="table" tableValues="0 0.12"/></feComponentTransfer></filter><linearGradient id="sky" x1="0" y1="0" x2="0" y2="1"><stop offset="0" stop-color="#D0A768"/><stop offset="0.55" stop-color="#75846D"/><stop offset="1" stop-color="#171B16"/></linearGradient><linearGradient id="earthg" x1="0" y1="0" x2="1" y2="1"><stop stop-color="#8A6A43"/><stop offset="1" stop-color="#10130F"/></linearGradient><radialGradient id="sun"><stop stop-color="#FFF4D6"/><stop offset="1" stop-color="#D0A768" stop-opacity="0"/></radialGradient></defs>
<rect width="1600" height="1000" fill="#D8C79E"/>
<circle cx="1230" cy="170" r="160" fill="#F3EFE6" opacity=".55"/>
<rect x="-83" y="395" width="30" height="435" fill="#253128" opacity=".86"/>
<polygon points="-131,515 -65,335 -1,515" fill="#253128" opacity=".92"/>
<rect x="-3" y="471" width="20" height="359" fill="#253128" opacity=".86"/>
<polygon points="-51,591 15,411 79,591" fill="#253128" opacity=".92"/>
<rect x="33" y="345" width="19" height="485" fill="#465645" opacity=".86"/>
<polygon points="-15,465 51,285 115,465" fill="#465645" opacity=".92"/>
<rect x="111" y="284" width="26" height="546" fill="#465645" opacity=".86"/>
<polygon points="63,404 129,224 193,404" fill="#465645" opacity=".92"/>
<rect x="173" y="496" width="24" height="334" fill="#465645" opacity=".86"/>
<polygon points="125,616 191,436 255,616" fill="#465645" opacity=".92"/>
<rect x="228" y="222" width="26" height="608" fill="#465645" opacity=".86"/>
<polygon points="180,342 246,162 310,342" fill="#465645" opacity=".92"/>
<rect x="304" y="466" width="27" height="364" fill="#465645" opacity=".86"/>
<polygon points="256,586 322,406 386,586" fill="#465645" opacity=".92"/>
<rect x="380" y="506" width="39" height="324" fill="#465645" opacity=".86"/>
<polygon points="332,626 398,446 462,626" fill="#465645" opacity=".92"/>
<rect x="446" y="291" width="23" height="539" fill="#334337" opacity=".86"/>
<polygon points="398,411 464,231 528,411" fill="#334337" opacity=".92"/>
<rect x="502" y="308" width="20" height="522" fill="#465645" opacity=".86"/>
<polygon points="454,428 520,248 584,428" fill="#465645" opacity=".92"/>
<rect x="587" y="397" width="27" height="433" fill="#253128" opacity=".86"/>
<polygon points="539,517 605,337 669,517" fill="#253128" opacity=".92"/>
<rect x="653" y="190" width="34" height="640" fill="#465645" opacity=".86"/>
<polygon points="605,310 671,130 735,310" fill="#465645" opacity=".92"/>
<rect x="694" y="339" width="37" height="491" fill="#75846D" opacity=".86"/>
<polygon points="646,459 712,279 776,459" fill="#75846D" opacity=".92"/>
<rect x="765" y="330" width="23" height="500" fill="#75846D" opacity=".86"/>
<polygon points="717,450 783,270 847,450" fill="#75846D" opacity=".92"/>
<rect x="826" y="394" width="19" height="436" fill="#465645" opacity=".86"/>
<polygon points="778,514 844,334 908,514" fill="#465645" opacity=".92"/>
<rect x="882" y="527" width="38" height="303" fill="#75846D" opacity=".86"/>
<polygon points="834,647 900,467 964,647" fill="#75846D" opacity=".92"/>
<rect x="959" y="285" width="40" height="545" fill="#75846D" opacity=".86"/>
<polygon points="911,405 977,225 1041,405" fill="#75846D" opacity=".92"/>
<rect x="1028" y="476" width="20" height="354" fill="#334337" opacity=".86"/>
<polygon points="980,596 1046,416 1110,596" fill="#334337" opacity=".92"/>
<rect x="1098" y="447" width="26" height="383" fill="#75846D" opacity=".86"/>
<polygon points="1050,567 1116,387 1180,567" fill="#75846D" opacity=".92"/>
<rect x="1148" y="368" width="36" height="462" fill="#75846D" opacity=".86"/>
<polygon points="1100,488 1166,308 1230,488" fill="#75846D" opacity=".92"/>
<rect x="1222" y="226" width="28" height="604" fill="#334337" opacity=".86"/>
<polygon points="1174,346 1240,166 1304,346" fill="#334337" opacity=".92"/>
<rect x="1273" y="519" width="26" height="311" fill="#334337" opacity=".86"/>
<polygon points="1225,639 1291,459 1355,639" fill="#334337" opacity=".92"/>
<rect x="1347" y="488" width="23" height="342" fill="#465645" opacity=".86"/>
<polygon points="1299,608 1365,428 1429,608" fill="#465645" opacity=".92"/>
<rect x="1415" y="315" width="19" height="515" fill="#253128" opacity=".86"/>
<polygon points="1367,435 1433,255 1497,435" fill="#253128" opacity=".92"/>
<rect x="1484" y="193" width="27" height="637" fill="#253128" opacity=".86"/>
<polygon points="1436,313 1502,133 1566,313" fill="#253128" opacity=".92"/>
<rect x="1547" y="541" width="27" height="289" fill="#465645" opacity=".86"/>
<polygon points="1499,661 1565,481 1629,661" fill="#465645" opacity=".92"/>
<rect x="1612" y="472" width="37" height="358" fill="#75846D" opacity=".86"/>
<polygon points="1564,592 1630,412 1694,592" fill="#75846D" opacity=".92"/>
<rect x="1661" y="400" width="32" height="430" fill="#334337" opacity=".86"/>
<polygon points="1613,520 1679,340 1743,520" fill="#334337" opacity=".92"/>
<rect x="1740" y="481" width="30" height="349" fill="#465645" opacity=".86"/>
<polygon points="1692,601 1758,421 1822,601" fill="#465645" opacity=".92"/>
<rect x="1797" y="381" width="29" height="449" fill="#253128" opacity=".86"/>
<polygon points="1749,501 1815,321 1879,501" fill="#253128" opacity=".92"/>
<path d="M0 775 C430 680 820 870 1600 700 L1600 1000 L0 1000Z" fill="#171B16"/>
<circle cx="520" cy="440" r="100" fill="#D7B08A"/>
<path d="M390 500 Q520 420 660 505 L760 950 L280 950Z" fill="#10130F"/>
<rect x="570" y="420" width="200" height="135" rx="20" fill="#171B16"/>
<circle cx="690" cy="488" r="65" fill="#2D382F" stroke="#D0A768" stroke-width="14"/>
<path d="M580 485 L470 545" stroke="#10130F" stroke-width="30" stroke-linecap="round"/>
<rect width="100%" height="100%" filter="url(#grain)" opacity=".34"/>
</svg>